<?xml version="1.0" encoding="UTF-8" standalone="no"?>
<svg
   xmlns:dc="http://purl.org/dc/elements/1.1/"
   xmlns:cc="http://creativecommons.org/ns#"
   xmlns:rdf="http://www.w3.org/1999/02/22-rdf-syntax-ns#"
   xmlns:svg="http://www.w3.org/2000/svg"
   xmlns="http://www.w3.org/2000/svg"
   xmlns:sodipodi="http://sodipodi.sourceforge.net/DTD/sodipodi-0.dtd"
   xmlns:inkscape="http://www.inkscape.org/namespaces/inkscape"
   enable-background="new 0 0 128 128"
   id="Слой_1"
   version="1.1"
   viewBox="0 0 118.61362 123"
   xml:space="preserve"
   inkscape:version="0.91 r13725"
   sodipodi:docname="em_innovative.svg"
   width="118.61362"
   height="123"
   inkscape:export-filename="/home/roland/Work/EdgeMind/Visual_identity/visual/em_innovative.png"
   inkscape:export-xdpi="500"
   inkscape:export-ydpi="500"><metadata
     id="metadata73"><rdf:RDF><cc:Work
         rdf:about=""><dc:format>image/svg+xml</dc:format><dc:type
           rdf:resource="http://purl.org/dc/dcmitype/StillImage" /><dc:title></dc:title></cc:Work></rdf:RDF></metadata><defs
     id="defs71" /><sodipodi:namedview
     pagecolor="#ffffff"
     bordercolor="#666666"
     borderopacity="1"
     objecttolerance="10"
     gridtolerance="10"
     guidetolerance="10"
     inkscape:pageopacity="0"
     inkscape:pageshadow="2"
     inkscape:window-width="1920"
     inkscape:window-height="1008"
     id="namedview69"
     showgrid="false"
     inkscape:zoom="4.8704322"
     inkscape:cx="60.709548"
     inkscape:cy="58.865366"
     inkscape:window-x="0"
     inkscape:window-y="0"
     inkscape:window-maximized="1"
     inkscape:current-layer="Слой_1"
     fit-margin-top="0"
     fit-margin-left="0"
     fit-margin-right="0"
     fit-margin-bottom="0" /><path
     style="fill:#eaf7fb"
     inkscape:connector-curvature="0"
     d="m 74.337729,11.5 0,24 c 0,11 3.6,21.7 10.3,30.4 l 31.100001,40.6 c 3.8,6.7 -1,14.9 -8.7,14.9 l -95.500001,0 c -7.7000004,0 -12.5000004,-8.3 -8.7000004,-14.9 L 33.937729,65.9 c 6.8,-8.7 10.4,-19.4 10.4,-30.4 l 0,-24"
     id="path3" /><ellipse
     style="fill:#ffffff"
     cx="55.537731"
     cy="30.299999"
     rx="2.2"
     ry="2.0999999"
     id="ellipse5" /><path
     style="fill:#eaf7fb"
     inkscape:connector-curvature="0"
     d="m 79.337729,11.5 -40,0 c -2.8,0 -5,-2.2 -5,-5 l 0,0 c 0,-2.8 2.2,-5 5,-5 l 40,0 c 2.8,0 5,2.2 5,5 l 0,0 c 0,2.8 -2.2,5 -5,5 z"
     id="path7" /><path
     style="opacity:0.9;fill:#ef7b26"
     inkscape:connector-curvature="0"
     id="path11"
     d="m 115.83773,106.6 -20.200001,-26.3 -72.6,0 -20.2000004,26.3 c -2.9,5.1 -0.8,11.1 3.9,13.7 l 105.3000014,0 c 4.5,-2.6 6.7,-8.6 3.8,-13.7 z" /><path
     d="m 12.837729,106.6 26.1,-40.6 c 6.8,-8.8 10.4,-19.5 10.4,-30.5 l 0,-24 -5,0 0,24 c 0,11 -3.6,21.7 -10.3,30.4 L 2.8377286,106.6 c -3.8,6.7 1,14.9 8.7000004,14.9 l 10,0 c -7.7,0 -12.5000004,-8.3 -8.7,-14.9 z"
     id="path15"
     inkscape:connector-curvature="0"
     style="opacity:0.25;fill:#c9d4e6" /><path
     d="m 89.537729,80.6 c 0.3,-0.2 0.7,-0.4 1.1,-0.5 -0.4,0.1 -0.7,0.3 -1.1,0.5 z"
     id="path23"
     inkscape:connector-curvature="0"
     style="fill:#e5e6e6" /><path
     d="m 91.937729,79.6 c 0.4,-0.1 0.7,-0.2 1.1,-0.2 -0.3,0 -0.7,0.1 -1.1,0.2 z"
     id="path25"
     inkscape:connector-curvature="0"
     style="fill:#e5e6e6" /><path
     d="m 90.737729,80 c 0.4,-0.2 0.8,-0.3 1.2,-0.4 -0.4,0.1 -0.8,0.3 -1.2,0.4 z"
     id="path27"
     inkscape:connector-curvature="0"
     style="fill:#e5e6e6" /><path
     d="m 93.337729,79.3 c 0.4,0 0.8,-0.1 1.2,-0.1 -0.4,0.1 -0.8,0.1 -1.2,0.1 z"
     id="path29"
     inkscape:connector-curvature="0"
     style="fill:#e5e6e6" /><polygon
     points="94.2,83.1 94.2,83.1 94.2,83.1 "
     id="polygon31"
     style="fill:#e5e6e6"
     transform="translate(-4.6622714,-2.5)" /><path
     d="m 93.037729,79.4 c 0.1,0 0.2,0 0.3,0 -0.1,-0.1 -0.2,0 -0.3,0 z"
     id="path33"
     inkscape:connector-curvature="0"
     style="fill:#e5e6e6" /><path
     d="m 91.937729,79.6 c 0,0 0,0 0,0 0,0 0,0 0,0 z"
     id="path35"
     inkscape:connector-curvature="0"
     style="fill:#e5e6e6" /><path
     d="m 90.637729,80.1 c 0,0 0.1,0 0.1,-0.1 0,0 -0.1,0 -0.1,0.1 z"
     id="path37"
     inkscape:connector-curvature="0"
     style="fill:#e5e6e6" /><path
     style="opacity:0.25;fill:#c9d4e6"
     inkscape:connector-curvature="0"
     id="path41"
     d="m 44.337729,6.5 c 0,-2.8 2.2,-5 5,-5 l -10,0 c -2.8,0 -5,2.2 -5,5 0,2.8 2.2,5 5,5 l 10,0 c -2.8,0 -5,-2.2 -5,-5 z" /><circle
     cx="55.537731"
     cy="113.3"
     r="2.5"
     id="circle43"
     style="fill:#ffffff" /><circle
     cx="68.537727"
     cy="92.800003"
     r="5"
     id="circle45"
     style="fill:#ffffff" /><circle
     cx="48.537731"
     cy="80.5"
     r="6"
     id="circle47"
     style="fill:#ffffff" /><circle
     cx="65.537727"
     cy="60.299999"
     r="4"
     id="circle49"
     style="fill:#ffffff" /><path
     style="fill:#1f416d"
     inkscape:connector-curvature="0"
     id="path53"
     d="m 55.537729,117.3 c -2.2,0 -4,-1.8 -4,-4 0,-2.2 1.8,-4 4,-4 2.2,0 4,1.8 4,4 0,2.2 -1.8,4 -4,4 z m 0,-5 c -0.6,0 -1,0.4 -1,1 0,0.6 0.4,1 1,1 0.6,0 1,-0.4 1,-1 0,-0.6 -0.5,-1 -1,-1 z" /><path
     style="fill:#1f416d"
     inkscape:connector-curvature="0"
     id="path57"
     d="m 68.537729,99.3 c -3.6,0 -6.5,-2.9 -6.5,-6.5 0,-3.6 2.9,-6.5 6.5,-6.5 3.6,0 6.5,2.9 6.5,6.5 0,3.6 -2.9,6.5 -6.5,6.5 z m 0,-10 c -1.9,0 -3.5,1.6 -3.5,3.5 0,1.9 1.6,3.5 3.5,3.5 1.9,0 3.5,-1.6 3.5,-3.5 0,-1.9 -1.6,-3.5 -3.5,-3.5 z" /><path
     style="fill:#1f416d"
     inkscape:connector-curvature="0"
     id="path61"
     d="m 65.537729,65.8 c -3,0 -5.5,-2.5 -5.5,-5.5 0,-3 2.5,-5.5 5.5,-5.5 3,0 5.5,2.5 5.5,5.5 0,3 -2.5,5.5 -5.5,5.5 z m 0,-8 c -1.4,0 -2.5,1.1 -2.5,2.5 0,1.4 1.1,2.5 2.5,2.5 1.4,0 2.5,-1.1 2.5,-2.5 0,-1.4 -1.2,-2.5 -2.5,-2.5 z" /><path
     style="fill:#1f416d"
     inkscape:connector-curvature="0"
     id="path65"
     d="m 55.537729,34.3 c -2.2,0 -4,-1.8 -4,-4 0,-2.2 1.8,-4 4,-4 2.2,0 4,1.8 4,4 0,2.2 -1.8,4 -4,4 z m 0,-5 c -0.6,0 -1,0.4 -1,1 0,0.6 0.4,1 1,1 0.6,0 1,-0.4 1,-1 0,-0.6 -0.5,-1 -1,-1 z" /><path
     style="fill:#ef7b26"
     inkscape:connector-curvature="0"
     id="path67"
     d="m 117.13773,105.8 c 0,-0.1 -0.1,-0.1 -0.1,-0.2 L 85.837729,65.1 c -6.5,-8.4 -10,-18.9 -10,-29.5 l 0,-22.6 3.5,0 c 3.6,0 6.5,-2.9 6.5,-6.5 0,-3.6 -2.9,-6.5 -6.5,-6.5 l -40,0 c -3.6,0 -6.5,2.9 -6.5,6.5 0,3.6 2.9,6.5 6.5,6.5 l 3.5,0 0,22.5 c 0,10.6 -3.6,21.1 -10,29.5 L 1.6377286,105.6 c 0,0.1 -0.1,0.1 -0.1,0.2 -2.1,3.6 -2,7.9 0,11.5 2.1,3.6 5.8,5.7 9.9000004,5.7 l 95.600001,0 c 4.1,0 7.9,-2.1 9.9,-5.7 2.2,-3.6 2.2,-7.9 0.2,-11.5 z M 39.337729,10 c -1.9,0 -3.5,-1.6 -3.5,-3.5 0,-1.9 1.6,-3.5 3.5,-3.5 l 40,0 c 1.9,0 3.5,1.6 3.5,3.5 0,1.9 -1.6,3.5 -3.5,3.5 l -40,0 z m 75.100001,105.8 c -1.5,2.6 -4.3,4.2 -7.3,4.2 l -95.600001,0 c -3.1000004,0 -5.8000004,-1.6 -7.3000004,-4.2 -1.5,-2.6 -1.6,-5.7 -0.1,-8.4 l 19.7000004,-25.6 17.3,0 c 0.6,3.5 3.7,6.2 7.4,6.2 4.1,0 7.5,-3.4 7.5,-7.5 0,-4.1 -3.4,-7.5 -7.5,-7.5 -3.5,0 -6.5,2.5 -7.3,5.8 l -15.2,0 9.1,-11.9 c 6.9,-8.9 10.6,-20.1 10.6,-31.4 l 0,-22.5 27,0 0,22.5 c 0,11.3 3.8,22.4 10.6,31.4 l 9.3,12.1 -28.1,0 c -0.8,0 -1.5,0.7 -1.5,1.5 0,0.8 0.7,1.5 1.5,1.5 0,0 0,0 0,0 l 30.6,0 19.500001,25.4 c 1.4,2.6 1.4,5.8 -0.2,8.4 z M 44.037729,80.5 c 0,-2.5 2,-4.5 4.5,-4.5 2.5,0 4.5,2 4.5,4.5 0,2.5 -2,4.5 -4.5,4.5 -2.5,0 -4.5,-2 -4.5,-4.5 z" /><path
     style="fill:#1f416d"
     inkscape:connector-curvature="0"
     id="path57-3"
     d="m 48.769862,88.419 c -4.296258,0 -7.757133,-3.460875 -7.757133,-7.757139 0,-4.296258 3.460875,-7.757133 7.757133,-7.757133 4.296258,0 7.757133,3.460875 7.757133,7.757133 0,4.296264 -3.460875,7.757139 -7.757133,7.757139 z m 0,-11.934057 c -2.267469,0 -4.176918,1.909449 -4.176918,4.176918 0,2.26747 1.909449,4.176924 4.176918,4.176924 2.26747,0 4.176918,-1.909454 4.176918,-4.176924 0,-2.267469 -1.909448,-4.176918 -4.176918,-4.176918 z" /></svg>