<?xml version="1.0" encoding="UTF-8" standalone="no"?>
<!-- Generator: Adobe Illustrator 17.0.0, SVG Export Plug-In . SVG Version: 6.00 Build 0)  -->

<svg
   xmlns:dc="http://purl.org/dc/elements/1.1/"
   xmlns:cc="http://creativecommons.org/ns#"
   xmlns:rdf="http://www.w3.org/1999/02/22-rdf-syntax-ns#"
   xmlns:svg="http://www.w3.org/2000/svg"
   xmlns="http://www.w3.org/2000/svg"
   xmlns:sodipodi="http://sodipodi.sourceforge.net/DTD/sodipodi-0.dtd"
   xmlns:inkscape="http://www.inkscape.org/namespaces/inkscape"
   version="1.0"
   id="Layer_1"
   x="0px"
   y="0px"
   width="297mm"
   height="210mm"
   viewBox="0 0 1052.3622 744.09449"
   enable-background="new 0 0 1200 1200"
   xml:space="preserve"
   inkscape:version="0.91 r13725"
   sodipodi:docname="mug.svg"
   inkscape:export-filename="/home/roland/Work/EdgeMind/Visual_identity/official_docs/mug.png"
   inkscape:export-xdpi="103.04764"
   inkscape:export-ydpi="103.04764"><metadata
     id="metadata51"><rdf:RDF><cc:Work
         rdf:about=""><dc:format>image/svg+xml</dc:format><dc:type
           rdf:resource="http://purl.org/dc/dcmitype/StillImage" /><dc:title></dc:title></cc:Work></rdf:RDF></metadata><defs
     id="defs49" /><sodipodi:namedview
     pagecolor="#ffffff"
     bordercolor="#666666"
     borderopacity="1"
     objecttolerance="10"
     gridtolerance="10"
     guidetolerance="10"
     inkscape:pageopacity="0"
     inkscape:pageshadow="2"
     inkscape:window-width="1920"
     inkscape:window-height="1009"
     id="namedview47"
     showgrid="false"
     inkscape:zoom="0.78666667"
     inkscape:cx="619.48516"
     inkscape:cy="387.68406"
     inkscape:window-x="0"
     inkscape:window-y="0"
     inkscape:window-maximized="1"
     inkscape:current-layer="Layer_1"
     fit-margin-top="0"
     fit-margin-left="0"
     fit-margin-right="0"
     fit-margin-bottom="0"
     units="mm" /><g
     id="g3371"
     transform="matrix(0.4193909,0,0,0.4193909,4,209.98078)"><path
       d="m 1124.9319,141.85042 c -4.842,6.845 -9.568,13.626 -14.407,20.324 -2.174,3.009 -6.347,5.925 -5.475,9.296 0.775,2.997 5.751,1.393 8.818,1.921 8.659,1.491 17.401,2.503 27.133,3.845 -2.545,2.409 -4.117,4.456 -6.168,5.735 -7.025,4.38 -11.868,11.203 -18.386,16.075 -3.84,2.87 -2.3,4.205 0.888,5.431 10.137,3.898 20.307,7.708 31.116,11.798 -9.075,4.74 -17.826,9.334 -26.602,13.88 -2.254,1.168 -6.06,1.699 -6.238,3.848 -0.213,2.566 3.427,3.742 5.634,5.204 7.863,5.207 15.808,10.293 24.089,16.864 -10.422,2.571 -19.913,4.86 -29.369,7.285 -2.247,0.576 -5.742,0.144 -6.321,2.376 -0.493,1.901 2.37,3.768 3.955,5.497 6.546,7.142 13.081,14.294 20.758,22.685 -13.476,0 -25.427,0 -38.076,0 5.056,12.273 11.946,22.384 18.415,34.355 -7.661,-1.657 -13.929,-3.006 -20.194,-4.371 -4.334,-0.944 -8.692,-1.793 -12.984,-2.901 -3.321,-0.857 -4.078,0.293 -3.186,3.325 1.282,4.359 2.502,8.736 2.734,13.814 -5.601,-5.574 -11.336,-11.023 -16.73,-16.791 -1.866,-1.996 0.718,-3.3 1.932,-4.513 10.347,-10.341 19.082,-21.85 25.215,-35.181 17.789,-38.663 17.36,-77.22 -2.745,-114.696 -15.316,-28.549 -38.796,-48.464 -69.607,-59.293 -20.05698,-7.049 -40.86098,-9.286001 -61.56198,-5.445 -44.627,8.279 -77.352,33.266 -95.649,74.941 -13.251,30.182 -13.94,61.49 -2.469,92.826 6.57,17.947 16.613,33.517 30.282,46.762 2.773,2.687 2.607,4.27 -0.136,6.963 -5.074,4.982 -9.625,10.498 -15.159,15.188 -0.676,-5.02 1.427,-8.868 2.479,-12.967 1.482,-5.777 1.266,-5.93 -4.379,-4.682 -10.095,2.232 -20.212,4.36 -31.463,6.777 6.336,-11.572 12.156,-22.201 18.238,-33.31 -12.828,-1.514 -24.894,-0.286 -38.037,-1.151 5.465,-6.279 10.295,-11.871 15.18,-17.414 1.466,-1.664 3.109,-3.171 4.63,-4.789 1.376,-1.463 3.258,-2.755 2.436,-5.21 -0.765,-2.284 -2.953,-1.83 -4.681,-2.38 -9.21,-2.934 -18.931,-4.043 -28.462,-7.754 3.274,-4.351 7.976,-6.144 11.796,-9.005 4.77,-3.572 9.767,-6.854 14.786,-10.075 3.23,-2.073 2.56,-3.283 -0.411,-4.841 -9.499,-4.983 -18.919,-10.115 -29.407,-15.747 7.15,-2.861 13.299,-6.423 19.871,-7.578 4.72,-0.829 8.059,-3.587 12.069,-5.238 3.445,-1.419 0.479,-3.531 -1.087,-4.9 -6.906,-6.041 -13.875,-12.01 -20.765,-18.07 -0.835,-0.734 -2.302,-1.391 -1.944,-2.771 0.446,-1.719 2.2,-1.293 3.46,-1.455 9.232,-1.189 18.47,-2.332 27.711,-3.458 3.46,-0.421 5.278,-1.135 2.341,-4.957 -5.29,-6.884 -10.151,-14.098 -15.214,-21.158 -1.089,-1.518 -3.072,-3.369 -2.137,-4.835 0.985,-1.545 3.545,-1.207 5.643,-0.951 8.116,0.992 16.245,1.943 24.394,2.589 4.805,0.381 5.533,-0.884 3.753,-5.317 -3.366,-8.383 -6.742,-16.762 -10.138,-25.133 -0.418,-1.029 -1.866,-1.92 -0.767,-3.136 0.959,-1.06 2.392,-0.414 3.364,0.025 8.419,3.802 17.471,5.758 26.048,9.077 1.624,0.629 3.327,1.55 4.844,0.457 1.6,-1.152 0.219,-2.884 0.024,-4.284 -1.317,-9.46 -2.789,-18.899001 -4.172,-28.351001 -0.114,-0.781 0.054,-1.604 0.135,-3.349 8.438,5.357 16.354,10.249 24.127,15.361 5.726,3.765001 7.933,2.901001 8.343,-3.941 0.561,-9.358 0.906,-18.728 2.403,-28.371997 2.995,1.129 4.688,3.509997 6.634,5.445997 5.445,5.419 10.758,10.973 16.069,16.526 2.632,2.752 4.303,2.165 5.442,-1.278 3.319,-10.037 6.668,-20.064997 10.185,-30.634997 5.394,6.762 8.702,14.432997 13.178,21.353997 1.995,3.085 2.804,8.326 6.462,8.515 3.876,0.2 4.793,-5.067 6.702,-8.143 3.499,-5.639 6.827,-11.384997 10.224,-17.087997 0.699,-1.174 1.356,-2.724 2.851,-2.628 1.547,0.099 1.883,1.85 2.278,3.062 2.78898,8.561997 5.47198,17.157997 8.19498,25.740997 1.391,4.385 2.091,4.417 5.459,1.036 7.376,-7.405 14.884,-14.677 23.15,-22.801997 0.857,10.522997 1.597,19.812997 2.384,29.098997 0.18,2.127 -0.468,4.572 1.953,5.975001 2.573,1.491 3.999,-0.578 5.833,-1.757001 7.152,-4.598 14.378,-9.081 21.607,-13.557 0.821,-0.508 2.045,-1.22 2.713,-0.944 1.402,0.58 0.7,2.067 0.519,3.172 -1.436,8.745 -2.971,17.475001 -4.365,26.226001 -0.994,6.237 0.029,7.05 6.171,4.964 8.238,-2.797 16.436,-5.709 24.673,-8.51 1.032,-0.351 2.214,-1.54 3.266,-0.327 0.928,1.071 0.144,2.273 -0.416,3.307 -4.57,8.431 -7.191,17.695 -11.258,26.33 -1.759,3.733 -0.984,4.996 3.078,4.554 9.016,-0.983 18.042,-1.88 27.063,-2.816 1.639,-0.173 3.296,-0.754 5.433,0.424 z"
       id="path5"
       inkscape:connector-curvature="0"
       style="fill:#ef7b26" /><path
       style="fill:#c9d4e6"
       d="m 977.30592,357.20742 c -5.804,-0.002 -11.608,-0.003 -17.412,-0.002 -11.425,0.002 -20.12,-8.756 -19.05,-18.673 1.62,-15.013 -3.443,-26.289 -13.344,-37.48 -12.662,-14.312 -21.536,-31.315 -27.366,-49.801 -14.538,-46.1 17.671,-96.639 65.78,-102.832 39.76298,-5.119 75.29598,16.413 88.52398,53.839 8.703,24.623 4.051,47.849 -7.757,70.294 -7.899,15.015 -17.705,28.68 -28.954,41.306 -2.162,2.427 -2.892,4.732 -2.742,7.801 0.249,5.11 0.321,10.237 0.232,15.353 -0.207,11.98 -8.522,20.119 -20.50098,20.191 -5.803,0.036 -11.607,0.007 -17.41,0.004 z m 14.809,-33.943 c 0,7.034 0,11.987 0,16.939 0,5.319 1.703,6.399 6.688,4.426 3.38198,-1.339 4.45098,-3.983 4.45798,-7.303 0.014,-6.489 0.214,-12.988 -0.091,-19.463 -0.184,-3.914 1.101,-6.811 3.718,-9.581 9.158,-9.697 17.161,-20.317 24.088,-31.702 8.311,-13.66 15.122,-28.05 16.081,-44.267 2.54,-42.949 -34.245,-77.12 -77.76798,-72.603 -41.018,4.257 -69.818,46.908 -58.357,86.303 7.089,24.367 21.465,44.289 38.121,62.808 2.099,2.333 3.191,4.592 3.137,7.707 -0.119,6.828 0.025,13.659 0.005,20.49 -0.012,4.114 1.881,6.877 5.792,8.026 3.434,1.009 5.999,0.841 5.411,-4.075 -0.423,-3.536 0.016,-7.166 -0.102,-10.748 -0.281,-8.515 1.291,-17.19 -0.747,-25.524 -5.585,-22.84 -11.667,-45.559 -17.488,-68.342 -0.557,-2.178 -1.268,-3.883 -3.152,-5.466 -3.555,-2.987 -2.923,-7.708 1.286,-9.613 22.87,-10.35 45.864,-10.446 68.78098,-0.148 4.533,2.037 5.183,6.684 1.417,9.9 -1.581,1.35 -2.29,2.731 -2.763,4.59 -3.193,12.556 -6.715,25.034 -9.631,37.652 -3.96498,17.175 -11.38098,33.792 -8.88498,49.994 z m -20.808,1.67 c 0,3.757 0,7.513 0,11.27 0,9.604 -0.002,9.477 9.404,9.328 2.989,-0.047 3.688,-1.085 3.648,-3.885 -0.146,-10.243 -0.011,-20.49 -0.086,-30.734 -0.023,-3.11 0.505,-6.051 1.284,-9.06 5.85,-22.603 11.561,-45.243 17.31398,-67.871 0.559,-2.198 1.117,-3.895 -2.166,-4.945 -15.47598,-4.951 -30.80698,-5.031 -46.22598,0.149 -2.384,0.801 -2.785,1.813 -2.182,4.081 3.106,11.671 6.316,23.322 9.052,35.082 4.344,18.671 12.299,36.731 9.958,56.585 z"
       id="path7"
       inkscape:connector-curvature="0" /><path
       d="m 330.69692,126.34742 c -0.439,0.883 -1.063,2.082 -1.638,3.304 -7.029,14.935 -0.701,32.427 14.176,39.302 2.998,1.385 6.106,2.362 9.395,1.979 3.914,-0.456 5.727,1.043 6.572,4.94 3.994,18.433 4.778,36.759 -0.539,55.109 -0.783,2.701 -1.968,3.341 -4.565,3.429 -20.785,0.707 -34.437,22.107 -24.764,41.527 1.568,3.149 1.424,5.068 -1.143,7.519 -13.722,13.103 -29.673,22.15 -47.92,27.308 -3.04,0.859 -4.164,-0.534 -5.71,-2.66 -10.584,-14.561 -27.096,-17.61 -41.163,-7.767 -3.139,2.196 -5.443,5.143 -7.401,8.358 -1.337,2.196 -2.784,2.757 -5.464,2.055 -18.972,-4.972 -35.022,-14.891 -49.007,-28.402 -1.582,-1.529 -1.911,-2.92 -0.635,-5.325 10.487,-19.75 -1.941,-41.351 -24.376,-42.555 -2.577,-0.138 -4.008,-0.734 -4.644,-3.499 -4.231,-18.397 -4.637,-36.75 -0.155,-55.181 0.805,-3.309 1.946,-4.788 5.682,-4.89 20.628,-0.564 33.516,-22.213 24.228,-40.925 -1.964,-3.957 -1.159,-5.869 1.754,-8.526 13.587,-12.39 29.111,-21.225 46.735,-26.444001 2.372,-0.702 3.862,-0.788 5.43,1.769 11.985,19.546001 38.831,18.894001 49.662,-0.437 1.146,-2.046 2.462,-2.265 4.636,-1.654 18.438,5.175 34.36,14.726001 48.466,27.507001 1.831,1.658 2.391,2.51 2.388,4.159 z m -142.66,76.156 c 0.015,34.945 27.8,62.839 62.682,62.717 34.286,-0.12 61.566,-27.817 62.042,-60.77 0.535,-37.078 -28.073,-63.367 -61.394,-63.993 -36.655,-0.687 -63.874,30.042 -63.33,62.046 z"
       id="path9"
       inkscape:connector-curvature="0"
       style="fill:#ef7b26" /><path
       style="fill:#1f416d"
       d="m 378.73092,88.319419 c -0.398,-2.766 -1.161,-6.217 -2.845,-9.421 -1.065,-2.027 -0.756,-3.575 1.077,-5.27 10.27,-9.491997 21.783,-16.684997 35.447,-20.234997 2.262,-0.588 3.845,-0.776 5.07,1.635 6.659,13.107 27.029,13.917 36.465,0.82 1.974,-2.739 3.822,-3.354 6.846,-2.407 13.079,4.096 24.207,11.328 34.138,20.640997 1.688,1.583 2.174,2.716 0.839,4.701 -8.808,13.085 3.477,30.228001 14.873,31.317001 6.435,0.615 8.425,3.717 8.999,9.553 1.175,11.936 1.633,23.76 -1.209,35.564 -0.595,2.471 -1.402,3.354 -3.929,3.477 -15.881,0.77 -25.995,17.077 -18.617,31.823 1.147,2.292 0.778,3.702 -0.943,5.325 -10.359,9.771 -22.264,16.782 -35.993,20.736 -2.774,0.799 -3.494,-0.826 -4.775,-2.502 -7.521,-9.843 -19.07,-12.254 -29.465,-6.354 -2.432,1.38 -4.713,3.187 -5.894,5.493 -1.931,3.768 -4.239,3.928 -7.851,2.782 -13.247,-4.204 -24.695,-11.263 -34.689,-20.844 -1.423,-1.364 -1.35,-2.423 -0.428,-3.975 7.539,-12.704 -0.927,-30.459 -15.405,-31.801 -6.894,-0.639 -7.512,-4.936 -8.256,-9.743 -1.761,-11.375 -1.164,-22.705 0.913,-34.001 0.529,-2.876 1.538,-4.25 4.861,-4.522 11.535,-0.946 20.802,-11.012 20.771,-22.792001 z m 57.498,-0.514 c -28.862,-1.093 -48.193,21.951001 -47.963,47.594001 0.219,24.352 20.497,47.596 49.066,46.74 25.205,-0.755 46.975,-21.797 46.141,-49.342 -0.709,-23.432 -21.628,-46.150001 -47.244,-44.992001 z"
       id="path11"
       inkscape:connector-curvature="0" /><path
       style="fill:#1f416d"
       d="m 462.63692,307.19842 c 0.548,3.761 -0.492,6.538 -5.988,8.57 -10.3,3.808 -13.365,15.983 -7.02,25.126 1.789,2.577 1.314,3.973 -0.243,6.063 -6.332,8.502 -14.307,14.974 -23.652,19.9 -2.021,1.065 -3.044,0.815 -4.728,-0.787 -9.457,-8.991 -22.125,-6.846 -27.982,4.837 -1.304,2.6 -2.644,2.908 -5.078,2.603 -10.323,-1.294 -19.815,-4.773 -28.645,-10.256 -2.133,-1.324 -2.792,-2.336 -2.158,-5.12 2.866,-12.577 -5.545,-22.256 -18.545,-21.631 -2.182,0.105 -3.401,-0.281 -4.293,-2.448 -4.086,-9.923 -6.215,-20.148 -5.719,-30.926 0.115,-2.508 1.102,-3.401 3.375,-4.141 12.25,-3.985 16.619,-15.629 9.602,-26.259 -1.765,-2.674 -1.078,-4.09 0.405,-6.041 6.395,-8.411 14.233,-15.053 23.709,-19.803 1.736,-0.87 2.87,-1.382 4.288,0.428 7.388,9.431 24.38,6.894 28.552,-4.953 0.701,-1.989 1.894,-2.387 3.907,-2.183 11.082,1.121 21.161,4.913 30.517,10.876 1.861,1.186 1.748,2.413 1.367,4.265 -2.704,13.136 5.069,22.317 18.652,21.842 2.448,-0.086 3.142,0.836 4.018,2.734 3.856,8.351 5.439,17.151 5.659,27.304 z m -86.752,-0.623 c -0.092,10.924 8.815,20.035 19.638,20.086 10.658,0.051 20.068,-9.234 20.043,-19.775 -0.026,-10.588 -8.843,-19.541 -19.498,-19.799 -10.839,-0.263 -20.092,8.672 -20.183,19.488 z"
       id="path13"
       inkscape:connector-curvature="0" /><path
       style="fill:#1f416d"
       d="m 110.23992,237.51442 c 3.794,-0.619 6.228,0.435 8.483,5.372 3.726,8.155 13.36,11.306 22.106,5.282 2.707,-1.865 4.365,-1.725 6.666,-0.095 7.196,5.101 13.174,11.318 17.741,18.89 1.453,2.41 1.68,4.219 -0.383,6.783 -6.422,7.982 -4.21,18.635 4.981,23.282 3.485,1.762 4.298,3.814 3.855,7.18 -1.076,8.177 -3.206,16.028 -7.189,23.292 -1.319,2.405 -2.539,4.141 -6.303,3.446 -10.186,-1.881 -19.094,6.593 -17.923,16.911 0.357,3.145 -0.762,4.376 -3.044,5.467 -8.449,4.04 -17.441,5.646 -26.728,5.988 -2.02,0.075 -2.971,-0.682 -3.669,-2.64 -3.708,-10.395 -15.046001,-15.073 -24.846001,-7.883 -1.451,1.064 -2.626,1.049 -4.504,0.02 -8.725,-4.781 -14.449,-12.255 -19.499,-20.448 -1.159,-1.88 -0.597,-3.264 0.712,-5.017 6.996,-9.37 4.946,-18.712 -5.345,-24.267 -2.667,-1.44 -3.421,-2.805 -3,-5.991 1.153,-8.721 3.135,-17.049 7.48,-24.8 1.53,-2.73 3.402,-3.495 6.233,-2.983 9.832,1.778 17.799,-4.462 17.358,-14.545 -0.232,-5.304 2.154,-7.337 6.264,-8.825 6.434,-2.328 12.888001,-4.572 20.554001,-4.419 z m 20.556,61.043 c 0.128,-9.447 -8.028,-17.99 -17.227,-18.044 -10.129,-0.06 -18.337001,7.674 -18.453001,17.388 -0.114,9.509 8.251001,18.266 17.623001,18.449 9.576,0.186 17.924,-8.04 18.057,-17.793 z"
       id="path15"
       inkscape:connector-curvature="0" /><path
       d="m 531.32592,193.36342 c 3.469,-0.872 5.609,0.965 7.224,5.301 3.905,10.487 15.939,14.363 25.34,8.306 3.565,-2.297 5.947,-2.346 9.412,0.375 8.046,6.32 14.526,13.82 19.606,22.633 1.256,2.178 1.191,3.745 -0.644,5.859 -8.663,9.981 -6.516,21.897 5.153,28.205 3.363,1.818 3.918,3.787 3.426,7.343 -1.375,9.942 -4.339,19.259 -9.377,27.93 -1.341,2.308 -2.469,3.673 -5.954,2.973 -12.356,-2.484 -22.436,6.264 -21.964,18.898 0.137,3.662 -1.269,5.102 -4.26,6.426 -9.544,4.226 -19.614,5.506 -29.889,6.024 -2.918,0.147 -3.62,-1.451 -4.516,-3.739 -3.815,-9.739 -9.647,-13.281 -19.76,-12.603 -2.886,0.194 -5.583,1.189 -7.483,2.971 -3.077,2.887 -5.059,1.515 -7.785,-0.422 -8.252,-5.862 -14.32,-13.537 -19.487,-22.084 -1.627,-2.692 -1.685,-4.913 0.615,-7.315 8.347,-8.72 4.56,-23.628 -6.298,-28.181 -2.633,-1.104 -3.103,-2.652 -2.937,-5.119 0.739,-10.961 4.353,-20.975 9.785,-30.414 1.262,-2.194 2.887,-2.762 5.54,-2.236 12.351,2.446 22.095,-5.694 21.711,-18.327 -0.12,-3.945 1.168,-5.566 4.718,-7.014 8.651,-3.53 17.547,-5.431 27.824,-5.79 z m -0.01,108.86 c 21.568,-0.015 39.158,-17.463 39.171,-38.854 0.012,-21.239 -18.186,-39.189 -39.675,-39.134 -21.113,0.054 -38.364,17.928 -38.297,39.681 0.065,21.485 17.119,38.322 38.801,38.307 z"
       id="path17"
       inkscape:connector-curvature="0"
       style="fill:#ef7b26" /><path
       d="m 617.70992,356.40942 c 6.174,3.698 12.768,6.663 18.352,11.388 3.484,2.948 5.657,5.291 3.689,10.588 -3.603,9.693 3.029,19.805 13.393,20.942 3.837,0.421 4.82,2.082 5.275,5.352 1.301,9.358 1.672,18.635 -0.553,27.947 -0.671,2.807 -1.915,4.131 -4.687,4.232 -11.099,0.405 -17.545,12.786 -12.95,22.583 1.293,2.757 0.493,4.438 -1.509,6.207 -7.397,6.536 -15.939,10.965 -25.221,14.16 -2.61,0.898 -4.046,0.049 -5.613,-1.963 -7.092,-9.104 -18.921,-9.184 -26.031,0.005 -2.001,2.586 -3.912,2.764 -6.598,1.996 -9.397,-2.688 -17.037,-8.398 -24.631,-14.194 -2.386,-1.822 -2.854,-3.933 -1.283,-6.669 5.208,-9.069 -2.567,-21.368 -12.333,-22.058 -3.219,-0.227 -4.968,-1.652 -5.665,-5.221 -1.863,-9.543 -1.673,-18.956 0.27,-28.419 0.456,-2.22 1.219,-3.508 3.858,-3.841 11.348,-1.435 19.31,-12.414 13.471,-23.54 -1.226,-2.336 -0.33,-3.876 1.312,-5.366 7.82,-7.098 16.724,-12.226 26.913,-15.169 2.214,-0.639 3.067,0.426 4.159,1.848 7.508,9.784 18.96,9.819 26.624,-0.04 1.428,-1.837 2.756,-2.163 4.782,-1.563 1.603,0.474 3.187,1.325 4.966,0.783 l 0.01,0.012 z m -22.481,25.56 c -19.846,-0.649 -36.577,15.988 -36.609,36.078 -0.031,19.253 16.714,35.844 35.519,35.789 21.285,-0.063 37.094,-15.628 36.581,-37.419 -0.45,-19.15 -16.675,-34.499 -35.491,-34.448 z"
       id="path19"
       inkscape:connector-curvature="0"
       style="fill:#ef7b26" /><path
       style="fill:#1f416d"
       d="m 631.40992,347.53042 c 0.884,-11.206 -2.532,-15.362 -13.982,-16.564 -2.17,-0.228 -2.945,-1.362 -3.622,-2.962 -2.985,-7.061 -3.763,-14.453 -3.389,-22.045 0.097,-1.967 1.16,-2.416 2.789,-2.943 7.322,-2.367 11.948,-10.745 6.687,-19.561 -1.208,-2.025 -0.988,-3.306 0.433,-4.954 4.712,-5.467 10.057,-10.152 16.215,-13.938 2.028,-1.247 3.485,-1.142 5.424,0.446 6.902,5.654 15.091,4.536 19.624,-2.971 1.82,-3.014 3.978,-3.579 6.732,-2.914 6.128,1.479 12.188,3.216 17.702,6.459 2.249,1.323 3.207,2.591 2.738,5.62 -1.382,8.938 4.137,15.236 13.253,15.426 2.699,0.056 3.935,1.002 4.89,3.37 2.668,6.617 3.431,13.47 3.31,20.532 -0.042,2.429 -0.972,3.429 -3.177,4.397 -8.414,3.692 -10.891,11.171 -6.374,19.269 1.152,2.065 0.869,3.32 -0.377,4.999 -4.453,6.004 -10.062,10.563 -16.62,14.11 -2.361,1.277 -3.593,0.173 -5.359,-1.098 -7.378,-5.309 -14.776,-3.808 -19.475,3.965 -1.158,1.915 -2.437,2.626 -4.529,2.426 -7.79,-0.744 -14.924,-3.282 -21.381,-7.709 -1.197,-0.82 -2.105,-1.784 -1.512,-3.36 z m 43.645,-38.415 c 0.034,-8.202 -6.698,-15.156 -14.758,-15.243 -7.63,-0.082 -14.711,6.904 -14.838,14.64 -0.137,8.312 6.451,15.008 14.767,15.009 8.169,0.002 14.796,-6.436 14.829,-14.406 z"
       id="path21"
       inkscape:connector-curvature="0" /><path
       style="fill:#1f416d"
       d="m 603.31892,206.82242 c -0.375,-1.933 0.731,-3.59 3.516,-4.98 5.528,-2.76 7.004,-7 4.705,-12.77 -1.078,-2.704 -0.962,-4.549 1.093,-6.859 2.417,-2.718 5.152,-4.962 8.019,-7.062 2.763,-2.024 5.338,-3.339 8.918,-0.363 3.748,3.116 10.142,1.59 12.512,-2.724 1.725,-3.139 3.457,-3.321 6.524,-2.551 3.153,0.791 6.275,1.508 9.219,2.926 3.409,1.641 6.391,2.802 5.61,8.106 -0.787,5.339 3.059,8.794 9.198,9.493 2.714,0.309 3.956,1.386 4.63,3.763 0.881,3.108 2.032,6.135 2.258,9.415 0.26,3.791 0.508,7.032 -4.032,9.195 -4.787,2.281 -6.176,7.703 -3.839,12.752 1.228,2.653 1.026,4.394 -1.053,6.256 -2.157,1.933 -4.045,4.183 -6.295,5.991 -3.467,2.787 -6.714,5.208 -11.473,1.207 -3.576,-3.007 -9.237,-1.302 -11.852,3.264 -1.701,2.97 -3.764,3.105 -6.288,2.591 -4.532,-0.923 -8.779,-2.674 -12.835,-4.929 -2.002,-1.113 -2.096,-2.762 -2.124,-4.755 -0.107,-7.684 -2.683,-10.603 -10.215,-11.051 -2.08,-0.124 -2.628,-1.016 -3.176,-2.509 -1.591,-4.337 -2.737,-8.772 -3.02,-14.406 z m 49.315,0.003 c -0.015,-6.006 -5.077,-11.289 -10.847,-11.321 -5.938,-0.033 -11.614,5.53 -11.581,11.349 0.035,6.128 5.33,11.206 11.609,11.133 6.12,-0.071 10.834,-4.933 10.819,-11.161 z"
       id="path23"
       inkscape:connector-curvature="0" /><path
       style="fill:#1f416d"
       d="m 525.43192,364.44342 c 0.638,2.731 -0.573,4.707 -3.639,6.389 -3.736,2.049 -4.913,5.668 -2.889,9.644 0.778,1.527 1.46,2.781 0.145,4.115 -2.503,2.538 -4.482,5.603 -7.623,7.509 -2.231,1.353 -3.993,2.116 -6.927,0.622 -3.425,-1.744 -7.896,-2.228 -10.635,1.716 -1.999,2.878 -4.17,2.818 -7.037,2.071 -3.162,-0.823 -6.181,-1.814 -8.971,-3.589 -1.569,-0.999 -2.578,-1.878 -2.352,-3.993 0.577,-5.407 -2.238,-8.468 -7.408,-9.082 -2.584,-0.307 -3.691,-1.759 -4.157,-3.786 -0.76,-3.309 -1.205,-6.694 -1.692,-10.06 -0.332,-2.293 0.531,-3.832 2.839,-4.758 3.486,-1.398 5.48,-4.69 4.18,-7.82 -3.317,-7.987 2.697,-10.623 7.207,-14.185 2.374,-1.875 4.789,-2.689 7.704,-0.179 2.739,2.359 6.331,1.604 8.236,-1.052 3.8,-5.299 8.151,-3.463 12.653,-1.883 4.117,1.445 7.879,2.956 6.996,8.781 -0.519,3.426 2.832,5.721 5.353,5.971 7.285,0.721 7.053,6.044 7.839,10.964 0.104,0.668 0.095,1.358 0.178,2.605 z m -22.472,1.312 c 0.063,-5.43 -3.411,-9.146 -8.704,-9.31 -5.389,-0.167 -9.776,4.19 -9.702,9.637 0.063,4.681 4.517,8.786 9.49,8.748 5.314,-0.041 8.853,-3.644 8.916,-9.075 z"
       id="path25"
       inkscape:connector-curvature="0" /><path
       d="m 405.13892,426.11442 c 0.053,-4.744 -2.625,-8.445 -7.151,-8.629 -3.363,-0.137 -4.257,-1.772 -5.082,-4.351 -1.059,-3.309 -1.067,-6.725 -1.406,-10.114 -0.175,-1.745 0.499,-2.634 2.162,-3.489 5.423,-2.786 6.629,-5.782 4.313,-11.143 -0.9,-2.083 -0.857,-3.431 0.656,-4.985 2.263,-2.323 4.463,-4.684 7.236,-6.448 2.257,-1.436 4.055,-2.319 6.727,-0.126 3.395,2.786 7.77,2.041 9.957,-1.329 2.591,-3.993 5.509,-3.077 8.703,-2.265 2.125,0.54 4.135,1.562 6.164,2.444 2.308,1.003 3.719,2.162 3.251,5.347 -0.658,4.48 2.46,8.231 6.98,8.344 3.425,0.086 4.235,1.894 5.053,4.418 1.016,3.133 1.193,6.356 1.366,9.599 0.109,2.052 -0.385,3.261 -2.581,4.263 -4.695,2.142 -6.242,6.096 -3.949,10.437 1.486,2.812 0.628,4.416 -1.249,6.152 -1.752,1.62 -3.448,3.32 -5.333,4.771 -2.549,1.963 -4.687,3.818 -8.389,0.78 -3.111,-2.553 -7.71,-1.565 -9.898,2.027 -1.961,3.221 -4.225,2.937 -6.826,2.241 -2.612,-0.699 -5.152,-1.743 -7.63,-2.845 -2.212,-0.987 -4.562,-2.107 -3.074,-5.099 z m 26.958,-22.662 c -0.023,-4.884 -4.21,-9.156 -9.02,-9.202 -5.299,-0.05 -9.445,3.985 -9.453,9.2 -0.007,5.116 4.293,9.32 9.485,9.271 4.723,-0.043 9.011,-4.466 8.988,-9.269 z"
       id="path27"
       inkscape:connector-curvature="0"
       style="fill:#ef7b26" /><path
       style="fill:#1f416d"
       d="m 294.78992,70.240419 c -0.142,-2.172997 0.134,-3.929997 2.623,-4.871997 4.52,-1.71 5.773,-5.68 4.353,-9.626 -1.659,-4.61 0.475,-7.239 3.471,-9.547 3.568,-2.748 6.587,-7.45 12.434,-2.822 2.501,1.979 6.584,0.74 8.582,-2.31 2.085,-3.183 4.727,-2.954 7.594,-2.152 2.283,0.639 4.451,1.685 6.683,2.516 2.759,1.026 3.958,2.845 3.539,5.887 -0.637,4.624 2.059,6.883 6.173,7.752 4.73,0.999 8.399,6.421 7.621,11.448 -0.538,3.476997 -1.035,6.586997 -4.877,8.592997 -2.86,1.493 -3.494,5.097 -2.029,8.184 1.745,3.679 0.55,6.328 -2.375,8.383 -4.141,2.909 -7.614,7.667 -14.003,3.598 -2.872,-1.829 -6.563,-0.077 -8.493,2.855 -1.962,2.981001 -4.28,2.832001 -7.004,1.889001 -2.409,-0.834001 -4.808,-1.712001 -7.159,-2.696001 -2.542,-1.064 -4.124,-2.646 -3.749,-5.844 0.392,-3.34 -1.047,-6.95 -4.336,-7.175 -7.823,-0.535 -7.612,-6.425 -8.875,-11.517 -0.204,-0.811 -0.123,-1.694 -0.173,-2.544 z m 22.523,-0.933 c 0.012,4.955 4.033,9.13 8.92,9.262 4.857,0.131 9.391,-4.147 9.391,-8.86 0,-5.316997 -3.978,-9.331997 -9.364,-9.451997 -5.072,-0.113 -8.96,3.819 -8.947,9.049997 z"
       id="path29"
       inkscape:connector-curvature="0" /><path
       d="m 592.21892,162.41342 c 0.278,2.801 -0.857,4.416 -3.43,5.61 -3.811,1.768 -5.285,5.484 -3.806,8.986 1.931,4.571 -0.153,6.984 -3.061,9.599 -3.602,3.239 -6.845,6.237 -12.44,3.054 -2.812,-1.6 -6.958,-1.214 -9.097,2.319 -1.999,3.302 -4.809,2.776 -7.581,2.09 -2.287,-0.566 -4.44,-1.694 -6.63,-2.627 -2.442,-1.04 -4.106,-2.074 -3.606,-5.605 0.525,-3.708 -1.348,-7.604 -5.657,-7.694 -4.337,-0.092 -5.391,-2.38 -6.398,-5.706 -0.857,-2.828 -1.049,-5.653 -1.157,-8.552 -0.084,-2.257 0.39,-3.663 2.783,-4.694 3.99,-1.72 5.745,-5.598 4.057,-9.282 -2.026,-4.424 0.109,-6.762 2.732,-9.19 1.858,-1.72 4.115,-3.006 6.173,-4.514 1.572,-1.153 2.913,-1.193 4.573,0.117 4.07,3.211 8.167,2.688 11.143,-1.355 3.582,-4.867 7.446,-1.83 10.955,-0.685 3.337,1.089 7.567,2.107 6.832,7.391 -0.583,4.187 2.138,7.233 5.475,7.322 5.887,0.158 6.322,3.895 7.107,7.919 0.355,1.829 0.689,3.664 1.033,5.497 z m -31.679,-7.985 c -4.959,0.002 -9.124,4.098 -9.179,9.027 -0.057,5.107 4.186,9.389 9.425,9.51 4.407,0.102 8.929,-4.735 8.863,-9.481 -0.069,-4.998 -4.153,-9.058 -9.109,-9.056 z"
       id="path31"
       inkscape:connector-curvature="0"
       style="fill:#ef7b26" /><path
       d="m 271.03792,38.508422 c -0.015,5.456 2.407,8.65 7.617,9.016 2.655,0.187 3.63,1.3 4.113,3.48 0.626,2.822 1.335,5.637 1.751,8.492 0.404,2.777 0.148,4.967 -3.272,6.367 -4.171,1.707 -5.707,6.394997 -3.309,10.316997 1.674,2.739 0.549,4.083 -0.969,5.609 -2.031,2.042 -4.219,3.953 -6.493,5.723 -2.301,1.791 -4.342,2.664 -7.442,0.391 -3.555,-2.606 -7.805,-1.703 -10.237,2.167 -1.628,2.592 -3.225,3.009 -5.768,2.11 -2.076,-0.734 -4.22,-1.281 -6.279,-2.056 -3.411,-1.283 -6.037,-2.642 -5.617,-7.485 0.385,-4.435 -3.015,-7.216 -7.507,-7.307 -2.468,-0.05 -3.246,-1.066 -3.862,-3.044 -1.886,-6.055997 -4.408,-11.952997 3.155,-16.477997 3.034,-1.815 3.457,-5.956 1.65,-8.77 -1.955,-3.044 -0.793,-4.721 1.104,-6.534 2.078,-1.986 4.329,-3.799 6.57,-5.605 2.142,-1.726 4.008,-2.161 6.709,-0.218 3.988,2.869 8.118,1.834 10.805,-2.433 1.279,-2.031 2.567,-2.463 4.56,-1.955 3.618,0.922 7.214,1.803 10.397,3.999 1.663,1.147 3.169,1.997 2.324,4.214 z m -17.82,13.653 c -5.066,0.041 -9.634,4.576 -9.486,9.417 0.15,4.898 4.286,8.830997 9.345,8.883997 5.44,0.058 9.36,-3.887997 9.208,-9.264997 -0.146,-5.118 -4.117,-9.076 -9.067,-9.036 z"
       id="path33"
       inkscape:connector-curvature="0"
       style="fill:#ef7b26" /><path
       d="m 128.74392,191.88242 c 0.289,2.795 -0.186,4.813 -3.13,6.258 -3.804,1.867 -5.348,5.499 -3.67,9.474 2.066,4.893 -0.806,7.582 -3.974,9.864 -3.105,2.237 -5.791,6.766 -10.908,2.596 -2.724,-2.22 -6.679,-1.968 -8.697001,1.133 -2.99,4.593 -6.545,3.905 -10.561,2.4 -4.413,-1.654 -9.108,-2.725 -8.396,-9.418 0.351,-3.294 -2.59,-6.071 -5.723,-6.204 -4.845,-0.206 -5.834,-3.058 -6.668,-6.768 -0.565,-2.515 -0.941,-5.004 -0.951,-7.584 -0.007,-1.908 0.544,-3.134 2.434,-3.961 4.749,-2.078 6.079,-5.972 4.324,-10.549 -1.954,-5.093 1.791,-7.381 4.611,-9.659 2.766,-2.234 5.621,-5.713 10.263,-2.298 3.645,2.682 7.593,2.266 9.945,-2.169 1.616,-3.048 4.111001,-2.841 6.574001,-2.162 2.605,0.718 5.061,1.995 7.562,3.074 2.373,1.024 3.708,2.488 3.513,5.46 -0.227,3.464 1.451,7.164 4.805,7.539 8.609,0.963 7.792,7.369 8.647,12.974 z m -31.366001,10.839 c 4.950001,0.029 9.397001,-4.055 9.477001,-8.703 0.079,-4.604 -4.371,-9.55 -8.737001,-9.708 -5.025,-0.182 -10.053,4.621 -10.059,9.61 -0.005,4.679 4.329,8.772 9.319,8.801 z"
       id="path35"
       inkscape:connector-curvature="0"
       style="fill:#ef7b26" /><polygon
       transform="translate(-26.151081,-243.58958)"
       points="643.861,599.999 643.85,599.988 643.952,599.892 "
       id="polygon37"
       style="fill:#75c4b9" /><path
       style="fill:#c9d4e6"
       inkscape:connector-curvature="0"
       id="path41"
       d="m 947.31292,374.23042 c 8.876,-0.026 23.536,-0.008 23.536,-0.008 0,0.033 0,0.065 0,0.098 13,0 21.87,0.045 31.25798,-0.019 4.507,-0.031 9.284,-2.655 8.77,-6.092 -0.585,-3.905 -2.351,-5.746 -6.426,-5.728 -18.26498,0.08 -36.14298,0.061 -54.40798,0.068 -4.151,0.002 -8.423,1.497 -8.353,6.149 0.067,4.546 1.788,5.543 5.623,5.532 z" /><path
       style="fill:#c9d4e6"
       inkscape:connector-curvature="0"
       id="path43"
       d="m 1004.4499,377.69842 c -14.82898,0.098 -29.65798,0.062 -44.48798,0.077 -3.664,-1.674 -7.368,-0.16 -11.019,0.019 -5.296,0.261 -6.793,3.683 -4.26,8.848 0.799,2.347 2.781,2.621 4.817,2.64 3.313,0.031 6.627,-0.043 9.937,-0.072 5.303,0.345 10.601,0.468 15.897,-0.115 9.707,0.088 19.417,0.211 29.12798,0.252 5.189,0.021 8.161,-2.081 7.908,-5.822 -0.326,-4.855 -3.686,-5.855 -7.92,-5.827 z" /><path
       style="fill:#c9d4e6"
       inkscape:connector-curvature="0"
       id="path45"
       d="m 349.36792,436.18642 c 6.599,8.243 14.802,14.546 23.89,19.792 16.385,9.457 34.214,12.244 52.793,11.222 3.63,-0.2 5.554,0.725 7.525,4.032 17.783,29.829 44.111,45.112 78.939,45.421 11.611,0.103 23.224,0.055 34.835,0.004 2.201,-0.01 3.503,0.014 4.074,2.961 1.733,8.955 7.259,13.268 16.639,13.242 3.207,-0.009 3.892,0.839 3.879,4 -0.112,26.477 -10e-4,52.955 0.031,79.432 0.015,12.463 -0.027,24.927 0.018,37.39 0.034,9.12 -3.976,15.704 -12.214,19.592 -4.775,2.253 -5.337,1.745 -5.54,-3.359 -0.399,-10.015 1.22,-20.126 -1.517,-30.036 -5.117,-18.527 -23.07,-29.815 -42.215,-26.473 -18.88,3.296 -32.042,20.606 -30.107,40.169 1.862,18.827 17.12,33.098 36.379,33.139 7.343,0.016 14.685,0.047 22.028,0.076 1.478,0.006 3.033,-0.468 3.609,1.768 1.482,5.753 -0.396,8.348 -6.262,8.341 -1.708,-0.002 -3.416,0.016 -5.125,0.018 -6.772,0.008 -12.906,2.301 -17.537,6.983 -7.317,7.396 -8.419,18.675 -3.584,28.043 4.468,8.657 14.214,13.365 24.591,11.88 9.39,-1.344 17.321,-8.795 19.256,-18.747 0.739,-3.801 0.659,-7.835 0.424,-11.731 -0.215,-3.562 0.61,-4.582 4.263,-4.546 15.541,0.153 31.408,-0.044 46.408,-0.113 0,0 0,10e-4 0,10e-4 5,0.632 8.477,0.424 12.617,0.151 -0.273,-0.524 -0.268,-1.007 -0.255,-1.456 -0.013,0.449 0.145,0.932 0.418,1.456 3.054,-0.046 6.138,-0.092 9.195,-0.138 10.705,0.431 21.423,0.813 32.121,-0.206 3.004,0.065 6.018,0.13 9.024,0.195 3.085,0.628 6.175,0.472 9.267,0.035 0.679,0.032 1.363,0.095 2.045,0.095 79.418,-0.008 158.836,-0.076 238.253,0.012 16.441,0.018 31.018,-4.141 43.782,-15.138 14.526,-12.516 21.871,-28.07 22.126,-46.96 0.275,-20.314 0.031,-40.634 0.039,-60.952 0.019,-51.911 0.053,-103.822 0.081,-155.733 0.057,-2.876 0.01,-5.758 0.193,-8.626 0.36,-5.54 -1.104,-11.175 0.857,-16.63 3.409,-0.053 6.83,-0.309 10.223,-0.107 4.135,0.246 6.25498,-1.819 6.31898,-5.575 0.067,-3.895 -2.45698,-5.788 -6.30798,-5.778 -5.115,0.014 -10.229,0.082 -15.342,0.127 l 0,0 c -3.406,-0.281 -6.812,-0.651 -10.195,0.208 -4.276,-0.29 -8.583,-1.115 -12.751,0.677 -2.739,1.693 -3.139,4.236 -2.089,6.931 1.035,2.657 3.056,4.418 6.115,4.427 2.184,0.007 4.368,-0.144 6.556,-0.223 3.401,-0.313 4.266,1.065 4.445,4.585 0.357,7.007 -0.086,13.971 -0.087,20.952 -0.011,70.257 -0.054,140.514 0.068,210.771 0.016,9.156 -0.866,18.011 -4.528,26.466 l 0,0 c -1.524,1.252 -2.519,2.792 -2.634,4.814 -0.575,1.079 -1.15,2.157 -1.724,3.236 -2.635,0.416 -3.23,2.888 -4.61,4.574 -10.633,11.46 -23.912,16.183 -39.381,16.164 -82.239,-0.104 -164.479,-0.055 -246.719,-0.059 0,0 0,0 0,0 -4.792,-0.256 -9.586,-0.507 -14.371,0.195 -10.832,-0.228 -21.667,-0.538 -32.496,0.195 -4.851,-1.017 -9.729,-0.651 -14.61,-0.28 0,0 0,0 0,0 -17.221,-0.059 -34.444,-0.073 -51.666,-0.256 -1.589,-0.017 -4.879,1.505 -4.419,-2.095 0.371,-2.901 -2.77,-7.025 3.15,-8.489 17.331,-4.286 26.383,-16.229 26.375,-34.014 -0.018,-38.54 -0.05,-77.08 -0.097,-115.62 -0.003,-2.117 -0.265,-3.692 2.983,-3.837 8.791,-0.393 12.934,-4.041 15.592,-12.716 l 0,0 0,0 c 0,0 0,-10e-4 0,-10e-4 0,-0.003 0.041,-0.164 0.041,-0.165 -0.343,-2.859 1.228,-3.287 3.675,-3.265 10.42,0.092 20.847,0.237 31.261,-0.025 35.219,-0.885 61.752,-16.739 78.567,-47.591 10.475,-19.219 13.879,-39.883 7.024,-61.329 -3.387,-10.597 -9.55,-19.534 -17.958,-27.11 1.392,-0.929 2.5,-1.696 3.634,-2.421 47.978,-30.68 52.438,-97.812 8.822,-134.415 -2.712,-2.276 -3.102,-3.95 -1.824,-7.193 18.015,-45.744 -7.781,-97.868 -56.198,-110.508 0,0 0,0 0,-0.001 -2.662,-0.74 -5.325,-1.481 -7.989,-2.223 -0.594,-3.527 -0.724,-7.146 -2.054,-10.531 -0.078,-2.908 -0.985,-5.566 -2.424,-8.065 -1.185,-3.735 -2.58,-7.377001 -4.722,-10.686001 -0.876,-2.846 -2.16,-5.453 -4.356,-7.535 -1.681,-2.811 -3.493,-5.523 -5.971,-7.72 -1.91,-2.944 -3.924,-5.794 -6.981,-7.701 -19.677,-17.464997 -42.549,-24.522997 -68.636,-20.962997 -8.615,1.176 -8.604,1.259 -11.468,-7.049 -15.484,-44.9100004 -68.773,-67.727 -111.851,-47.8400004 -2.799,1.292 -4.591,1.764 -7.285,-1.01 -19.811,-20.3969996 -44.313,-28.4369996 -72.172,-24.6499996 -19.46,2.646 -36.069,11.905 -49.265,26.7079996 -1.943,2.18 -3.24,2.76699998 -6.308,1.468 -39.41,-16.6829996 -84.604,-1.523 -104.858,36.1050004 -4.688,8.71 -9.021,11.019 -18.821,10.921 -42.394,-0.424 -76.891001,31.102997 -82.189001,73.954998 -0.513,4.152 -2.183,4.797 -5.542,5.191 -58.376,6.853 -91.2549995,69.091 -64.067,121.389 1.352,2.6 1.251,3.883 -0.727,5.965 -8.722,9.18 -14.7559995,20.044 -18.3009995,32.133 -12.758,43.514 10.7119995,88.354 53.6979995,102.946 1.134,0.699 2.247,1.461 3.696,1.185 7.982,1.952 16.045,3.148 24.302,3.143 69.854001,-0.044 139.708001,-0.03 209.563001,-0.045 2.728,-0.001 5.457,-0.128 8.185,-0.197 0,0 0,0 0,0 5.741,0.706 11.5,0.44 17.261,0.285 3.313,0.785 8.382,-2.64 9.311,3.877 0.218,2.863 0.664,5.665 2.197,8.175 2.281,9.901 7.898,18.28 12.39,27.169 1.227,2.413 2.983,4.336 5.298,5.745 m -309.564001,-60.59 c 0.405,0.232 0.831,0.422 1.267,0.567 -0.437,-0.144 -0.862,-0.334 -1.267,-0.567 z m 0.664,-11.956 c 0.003,-0.001 0.005,-0.002 0.007,-0.002 l 0,0 c -0.003,0 -0.005,10e-4 -0.007,0.002 z m 17.437,4.894 c -0.329,0.489 -0.539,1.016 -0.642,1.571 0.103,-0.555 0.313,-1.082 0.642,-1.571 0.219,-0.326 0.491,-0.634 0.82,-0.923 -0.329,0.289 -0.601,0.597 -0.82,0.923 z m 4.937,-3.695 c 0.252,-0.329 0.45,-0.692 0.602,-1.096 -0.153,0.403 -0.35,0.766 -0.602,1.096 z m 4.708,7.156 c 0.431,0.435 0.863,0.838 1.303,1.142 -0.441,-0.304 -0.873,-0.706 -1.303,-1.142 z m 558.731001,-245.255 c -0.211,3.367 -0.726,6.744 0.332,10.067 0,0 10e-4,0 10e-4,0 0.989,7.647 5.338,11.517 13.319,11.851 29.695,1.242 53.239,23.439 55.903,52.985 1.136,12.602 -1.97,24.341 -8.473,35.184 -5.309,8.851 -3.737,15.039 5.193,20.473 26.691,16.243 36.784,45.719 24.564,74.27 -4.427,10.342 -11.902,18.901 -21.777,24.925 0,0 0,0 0,-0.001 -1.255,-0.018 -2.117,0.581 -2.651,1.695 -1.92,-0.017 -3.025,1.656 -4.651,2.247 0,0 0,0 0,0 -3.188,1.135 -6.379,2.271 -9.569,3.406 -4.275,0.614 -8.55,1.228 -12.824,1.842 0,0 0,0 0,-10e-4 -1.683,-0.455 -3.353,-0.792 -4.784,0.642 -3.731,1.006 -6.691,2.815 -7.335,7.037 0,0 -0.061,0.053 -0.061,0.053 -3.18,4.528 -2.388,9.413 2.189,13.498 0,0 0,0 0,0 0.307,1.341 0.927,2.36 2.488,2.404 0.117,-0.633 0.128,-1.311 0.371,-1.891 -0.243,0.581 -1.61,1.258 -1.728,1.891 5.251,2.272 6.062,2.304 6.062,0.234 0,0.008 0,0.016 0,0.024 0,2.041 8.469,2.135 11.947,3.436 17.303,6.473 27.471,22.537 25.17,41.361 -3.467,28.353 -23.806,50.635 -51.633,55.76 -4.162,0.766 -8.304,0.972 -12.549,0.995 -19.097,0.1 -38.111,0.03 -57.209,0.056 -1.856,0.003 -3.67,-1.829 -5.526,-1.696 0.718,2.398 0.775,-2.078 0.057,-2.078 0,0 -0.048,0 -0.048,0 -2.503,0 -4.208,1.895 -4.208,1.741 0,0 0,0.982 0,0.982 0,-0.62 -6.052,-0.371 -8.196,0.732 -16.047,-0.067 -32.921,0.13 -48.967,0.041 -19.797,-0.109 -36.219,-8.083 -49.137,-22.865 1.126,-1.603 2.404,-0.806 3.618,-0.81 16.732,-0.057 33.361,0.044 50.093,-0.038 6.093,-0.03 10.884,-3.732 12.149,-8.956 1.485,-6.134 -0.658,-11.419 -5.754,-14.602 -2.78,-1.737 -5.867,-1.645 -8.921,-1.647 -32.09,-0.024 -64.187,0.044 -96.276,-0.05 -18.476,-0.054 -34.203,-6.753 -46.989,-20.174 -2.21,-2.621 -4.424,-5.244 -6.636,-7.867 -3.406,-6.011 -6.247,-12.281 -8.623,-18.767 -5.629,-4.244 -11.642,-7.462 -18.366,-8.278 6.724,0.816 12.737,4.034 18.365,8.276 -0.675,-4.635 -1.35,-9.27 -2.026,-13.903 0,0 0,0 0,0 -0.203,-11.465 -4.411,-15.662 -15.819,-15.668 -85.843,-0.044 -171.686,-0.11 -257.529001,-0.021 -4.505,0.005 -8.626,-1.056 -12.843,-2.139 0,0 0,0 0,0 -0.817,-1.156 -2.021,-1.063 -3.219,-0.993 -14.135,-5.955 -25.195,-15.174 -32.29,-29.094 -11.678,-22.909 -5.751,-52.798 14.087,-69.302 10.274,-8.547 10.661,-12.773 3.368,-23.677 -12.836,-19.192 -14.673,-39.562 -3.856,-60.06 10.786,-20.441 28.406,-30.67 51.61,-30.998 2.216,-0.031 4.435001,0.198 6.653001,0.288 9.251,0.378 14.851,-5.165 14.139,-14.488 -0.78,-10.211 0.015,-20.121 4.266,-29.555 12.315,-27.327001 40.507,-40.640998 69.432,-32.821001 9.546,2.581 15.488,-0.937 17.756,-10.510997 9.331,-39.391 52.93,-57.2810004 87.638,-35.961 8.632,5.302 15.105,3.963 20.467,-4.234 23.43,-35.82 71.755,-36.747 96.948,-1.858 6.011,8.325 11.848,9.41 20.474,3.808 34.262,-22.2510004 79.839,-4.432 88.347,34.602 0.898,4.12 1.253,8.363 1.756,12.561997 1.022,8.523 9.59,14.097 17.27,10.484 23.234,-10.93 44.663,-8.028 64.73,7.498 2.49,2.639 4.59,5.658 7.604,7.781 6.183,9.085001 10.657,18.862001 12.11,29.867001 m -58.473,394.536 c -1.441,0.004 -2.751,-0.406 -3.706,-1.424 -0.523,-0.558 -0.969,-2.64 -0.901,-3.36 0.102,-1.069 1.048,-2.076 1.886,-2.076 3.92,0 3.759,0 17.759,0 0,0 0,2.281 0,2.289 0,0 4.24,-0.054 7.818,0.035 1.006,0.025 1.169,-0.859 1.366,1.073 0.133,1.305 -1.542,2.266 -2.658,2.773 -0.898,0.407 -2.314,0.654 -3.301,0.663 -5.965,0.055 -12.297,0.01 -18.263,0.027 z m -28.021,153.85 c -3.906,-0.201 -10.941,-0.052 -10.941,-0.052 0,-0.108 0,-0.215 0,-0.323 0,0 -10.063,0.483 -14.587,-0.092 -12.922,-1.64 -23.065,-13.965 -21.971,-26.752 1.162,-13.583 12.665,-24.348 26.053,-23.369 12.723,0.931 23.567,10.13 24.065,24.625 0.257,7.487 0.444,14.987 0.597,22.479 0.054,2.631 -0.518,3.623 -3.216,3.484 z m 2.664,37.063 c -0.351,3.205 -0.008,6.484 -0.344,9.692 -0.663,6.335 -6.159,11.023 -12.173,10.662 -5.888,-0.353 -11.212,-5.954 -11.311,-11.897 -0.1,-6.033 4.378,-11.352 10.664,-11.777 1.697,-0.115 4.558,-0.017 4.558,-0.017 0,-0.017 0,-0.034 0,-0.051 0,0 3.288,0.096 4.641,-0.021 2.558,-0.221 4.279,0.54 3.965,3.409 z m 419.187,-30.175 c 0.365,0.213 0.734,0.416 1.118,0.572 -0.385,-0.155 -0.753,-0.359 -1.118,-0.572 z m 11.603,-243.301 c 0.297,0.18 0.594,0.248 0.889,0.229 -0.295,0.019 -0.592,-0.049 -0.889,-0.229 z m 4.732,-29.652 c -0.481,-1.983 -1.274,-3.767 -2.222,-5.452 0.949,1.684 1.742,3.468 2.222,5.452 0.304,1.253 0.509,2.485 0.627,3.701 -0.118,-1.216 -0.323,-2.448 -0.627,-3.701 z" /></g><g
     transform="matrix(1.9734073,0,0,2.167754,-41.490233,-751.12795)"
     id="layer1"
     inkscape:label="Calque 1"><g
       id="g6080"
       transform="matrix(1.25,0,0,-1.25,260.80845,1298.0893)"><path
         inkscape:connector-curvature="0"
         id="path308"
         style="fill:#244371;fill-opacity:1;fill-rule:nonzero;stroke:none"
         d="m 113.8608,575.6797 -11.536,0 0,20.03 11.536,0 0,-3.48 -7.289,0 0,-4.398 6.782,0 0,-3.48 -6.782,0 0,-5.165 7.289,0 0,-3.507 z" /><path
         inkscape:connector-curvature="0"
         id="path312"
         style="fill:#244371;fill-opacity:1;fill-rule:nonzero;stroke:none"
         d="m 125.1221,578.7349 c 1.069,0 1.852,0.31 2.35,0.931 0.498,0.621 0.77,1.676 0.815,3.165 l 0,0.452 c 0,1.644 -0.253,2.823 -0.76,3.535 -0.508,0.713 -1.331,1.069 -2.473,1.069 -0.932,0 -1.656,-0.396 -2.172,-1.185 -0.516,-0.791 -0.774,-1.939 -0.774,-3.446 0,-1.507 0.26,-2.638 0.781,-3.391 0.521,-0.754 1.265,-1.13 2.233,-1.13 m -1.466,-3.33 c -1.799,0 -3.213,0.7 -4.24,2.097 -1.028,1.398 -1.542,3.334 -1.542,5.809 0,2.512 0.523,4.469 1.569,5.87 1.046,1.403 2.487,2.104 4.323,2.104 1.927,0 3.398,-0.75 4.412,-2.247 l 0.136,0 c -0.21,1.141 -0.315,2.16 -0.315,3.055 l 0,4.905 4.192,0 0,-21.318 -3.205,0 -0.808,1.986 -0.179,0 c -0.949,-1.507 -2.398,-2.261 -4.343,-2.261" /><path
         inkscape:connector-curvature="0"
         id="path316"
         style="fill:#244371;fill-opacity:1;fill-rule:nonzero;stroke:none"
         d="m 140.6855,585.9819 c 0,-0.831 0.189,-1.489 0.568,-1.973 0.379,-0.484 0.957,-0.726 1.734,-0.726 0.785,0 1.36,0.242 1.726,0.726 0.365,0.484 0.548,1.142 0.548,1.973 0,1.845 -0.758,2.768 -2.274,2.768 -1.535,0 -2.302,-0.923 -2.302,-2.768 m -1.521,-12.467 c 0,-0.576 0.276,-1.028 0.829,-1.357 0.553,-0.328 1.327,-0.492 2.322,-0.492 1.498,0 2.672,0.205 3.521,0.616 0.85,0.41 1.275,0.973 1.275,1.685 0,0.576 -0.252,0.973 -0.754,1.192 -0.503,0.219 -1.279,0.328 -2.329,0.328 l -2.165,0 c -0.767,0 -1.409,-0.18 -1.925,-0.54 -0.516,-0.361 -0.774,-0.838 -0.774,-1.432 m 11.824,17.482 0,-2.124 -2.398,-0.617 c 0.438,-0.685 0.658,-1.452 0.658,-2.301 0,-1.644 -0.574,-2.926 -1.72,-3.844 -1.146,-0.917 -2.738,-1.376 -4.775,-1.376 l -0.753,0.041 -0.617,0.068 c -0.428,-0.328 -0.643,-0.694 -0.643,-1.095 0,-0.603 0.767,-0.905 2.302,-0.905 l 2.602,0 c 1.681,0 2.962,-0.361 3.843,-1.082 0.882,-0.722 1.323,-1.781 1.323,-3.178 0,-1.79 -0.747,-3.179 -2.241,-4.165 -1.493,-0.987 -3.637,-1.48 -6.432,-1.48 -2.137,0 -3.77,0.372 -4.898,1.117 -1.128,0.744 -1.692,1.787 -1.692,3.13 0,0.923 0.288,1.694 0.863,2.316 0.576,0.621 1.421,1.063 2.535,1.328 -0.429,0.183 -0.804,0.482 -1.123,0.898 -0.32,0.415 -0.48,0.856 -0.48,1.322 0,0.584 0.169,1.071 0.507,1.459 0.337,0.388 0.826,0.769 1.466,1.144 -0.804,0.347 -1.441,0.904 -1.911,1.671 -0.47,0.768 -0.706,1.672 -0.706,2.713 0,1.672 0.544,2.964 1.631,3.878 1.086,0.913 2.639,1.37 4.658,1.37 0.429,0 0.938,-0.04 1.527,-0.117 0.589,-0.078 0.966,-0.135 1.13,-0.171 l 5.344,0 z" /><path
         inkscape:connector-curvature="0"
         id="path320"
         style="fill:#244371;fill-opacity:1;fill-rule:nonzero;stroke:none"
         d="m 160.9478,588.3115 c -0.886,0 -1.58,-0.281 -2.082,-0.843 -0.502,-0.561 -0.79,-1.359 -0.863,-2.39 l 5.863,0 c -0.018,1.031 -0.287,1.829 -0.808,2.39 -0.521,0.562 -1.224,0.843 -2.11,0.843 m 0.589,-12.906 c -2.465,0 -4.393,0.68 -5.781,2.041 -1.389,1.361 -2.083,3.288 -2.083,5.782 0,2.566 0.642,4.551 1.925,5.953 1.283,1.402 3.058,2.103 5.323,2.103 2.164,0 3.85,-0.617 5.055,-1.85 1.206,-1.233 1.809,-2.936 1.809,-5.11 l 0,-2.028 -9.879,0 c 0.046,-1.187 0.398,-2.114 1.056,-2.781 0.657,-0.666 1.579,-1 2.767,-1 0.922,0 1.795,0.096 2.617,0.288 0.822,0.192 1.681,0.497 2.576,0.918 l 0,-3.234 c -0.731,-0.365 -1.512,-0.636 -2.343,-0.815 -0.831,-0.178 -1.845,-0.267 -3.042,-0.267" /><path
         inkscape:connector-curvature="0"
         id="path324"
         style="fill:#f46e27;fill-opacity:1;fill-rule:nonzero;stroke:none"
         d="m 181.73,575.6797 -7.466,18.495 -0.11,0 c 0.074,-1.132 0.11,-2.292 0.11,-3.479 l 0,-15.016 -1.343,0 0,20.03 2.165,0 7.097,-17.619 0.082,0 7.097,17.619 2.109,0 0,-20.03 -1.41,0 0,15.18 c 0,1.059 0.054,2.155 0.164,3.288 l -0.11,0 -7.494,-18.468 -0.891,0 z" /><path
         d="m 199.239,575.68 -1.356,0 0,14.892 1.356,0 0,-14.892 z m -1.548,19.029 c 0,0.877 0.288,1.316 0.863,1.316 0.283,0 0.505,-0.114 0.665,-0.343 0.16,-0.228 0.239,-0.553 0.239,-0.973 0,-0.411 -0.079,-0.734 -0.239,-0.972 -0.16,-0.237 -0.382,-0.357 -0.665,-0.357 -0.575,0 -0.863,0.443 -0.863,1.329"
         style="fill:#f46e27;fill-opacity:1;fill-rule:nonzero;stroke:none"
         id="path326"
         inkscape:connector-curvature="0" /><path
         inkscape:connector-curvature="0"
         id="path330"
         style="fill:#f46e27;fill-opacity:1;fill-rule:nonzero;stroke:none"
         d="m 215.7065,575.6797 0,9.659 c 0,1.497 -0.315,2.587 -0.945,3.267 -0.63,0.681 -1.608,1.021 -2.932,1.021 -1.781,0 -3.084,-0.45 -3.912,-1.35 -0.826,-0.899 -1.239,-2.358 -1.239,-4.377 l 0,-8.22 -1.357,0 0,14.892 1.151,0 0.26,-2.041 0.082,0 c 0.968,1.552 2.69,2.329 5.165,2.329 3.38,0 5.07,-1.813 5.07,-5.439 l 0,-9.741 -1.343,0 z" /><path
         inkscape:connector-curvature="0"
         id="path334"
         style="fill:#f46e27;fill-opacity:1;fill-rule:nonzero;stroke:none"
         d="m 228.4204,589.627 c -1.626,0 -2.848,-0.571 -3.666,-1.713 -0.817,-1.141 -1.225,-2.799 -1.225,-4.973 0,-4.22 1.639,-6.33 4.918,-6.33 1.681,0 2.913,0.489 3.699,1.466 0.786,0.977 1.178,2.589 1.178,4.837 l 0,0.232 c 0,2.302 -0.385,3.957 -1.157,4.967 -0.772,1.009 -2.021,1.514 -3.747,1.514 m 0,1.233 c 1.078,0 2.009,-0.197 2.795,-0.589 0.786,-0.394 1.488,-1.064 2.109,-2.015 l 0.082,0 c -0.054,1.152 -0.082,2.279 -0.082,3.385 l 0,5.357 1.343,0 0,-21.318 -0.89,0 -0.343,2.274 -0.11,0 c -1.133,-1.699 -2.758,-2.549 -4.877,-2.549 -2.055,0 -3.626,0.64 -4.713,1.919 -1.086,1.279 -1.63,3.141 -1.63,5.59 0,2.575 0.539,4.543 1.616,5.904 1.078,1.361 2.645,2.042 4.7,2.042" /><path
         inkscape:connector-curvature="0"
         id="path338"
         style="fill:#f46e27;fill-opacity:1;fill-rule:nonzero;stroke:none"
         d="m 173.5503,610.1206 c -20.647,0 -37.386,16.739 -37.386,37.386 0,20.647 16.739,37.386 37.386,37.386 9.611,0 18.372,-3.629 24.995,-9.589 -7.322,8.132 -17.93,13.248 -29.733,13.248 -22.092,0 -40.001,-17.91 -40.001,-40.001 0,-22.091 17.909,-40.001 40.001,-40.001 5.584,0 10.899,1.148 15.729,3.216 -3.476,-1.068 -7.166,-1.645 -10.991,-1.645" /><path
         inkscape:connector-curvature="0"
         id="path342"
         style="fill:#244371;fill-opacity:1;fill-rule:nonzero;stroke:none"
         d="m 195.168,670.0933 c 12.098,-14.967 9.771,-36.91 -5.2,-49.007 -7.161,-5.789 -15.919,-8.266 -24.432,-7.645 10.065,-2.304 21.047,-0.141 29.699,6.854 14.97,12.097 17.297,34.038 5.199,49.008 -6.309,7.807 -15.297,12.166 -24.576,12.842 7.345,-1.68 14.206,-5.735 19.31,-12.052" /><path
         inkscape:connector-curvature="0"
         id="path346"
         style="fill:#244371;fill-opacity:1;fill-rule:nonzero;stroke:none"
         d="m 169.6274,660.4951 0,-3.417 -15.617,0 c -1.991,0 -3.567,-0.466 -4.684,-1.385 -1.096,-0.903 -1.857,-2.18 -2.259,-3.798 l -0.445,-1.792 1.845,0 17.696,0 0,-3.14 -17.984,0 -1.443,0 0,-1.445 0,-4.052 0,-1.443 1.443,0 21.448,0 0,-3.418 -25.432,0 0,11.997 c 0,1.878 0.236,3.594 0.701,5.1 0.449,1.459 1.103,2.709 1.937,3.711 0.817,0.98 1.826,1.747 2.995,2.276 1.181,0.535 2.549,0.806 4.066,0.806 l 15.733,0" /><path
         inkscape:connector-curvature="0"
         id="path350"
         style="fill:#f46e27;fill-opacity:1;fill-rule:nonzero;stroke:none"
         d="m 180.9028,660.4951 c 1.879,0 3.594,-0.236 5.099,-0.701 1.459,-0.451 2.709,-1.103 3.712,-1.937 0.981,-0.818 1.746,-1.826 2.275,-2.996 0.536,-1.179 0.808,-2.547 0.808,-4.066 l 0,-14.19 -3.418,0 0,14.075 c 0,1.991 -0.465,3.566 -1.386,4.684 -0.902,1.098 -2.18,1.857 -3.797,2.258 l -1.792,0.446 0,-1.846 0,-17.696 -3.14,0 0,17.984 0,1.445 -1.443,0 -4.053,0 -1.443,0 0,-1.445 0,-19.905 -3.419,0 0,23.89 11.997,0" /><path
         inkscape:connector-curvature="0"
         id="path354"
         style="fill:#161616;fill-opacity:1;fill-rule:nonzero;stroke:none"
         d="m 192.8623,568.6821 -2.787,0 0,5.099 2.787,0 0,-0.328 -2.431,0 0,-1.929 2.295,0 0,-0.328 -2.295,0 0,-2.186 2.431,0 0,-0.328 z" /><path
         inkscape:connector-curvature="0"
         id="path358"
         style="fill:#161616;fill-opacity:1;fill-rule:nonzero;stroke:none"
         d="m 197.1382,568.6821 -0.408,0 -1.507,2.378 -1.534,-2.378 -0.395,0 1.717,2.657 -1.56,2.442 0.401,0 1.378,-2.184 1.399,2.184 0.38,0 -1.58,-2.434 1.709,-2.665 z" /><path
         inkscape:connector-curvature="0"
         id="path362"
         style="fill:#161616;fill-opacity:1;fill-rule:nonzero;stroke:none"
         d="m 198.2158,571.0952 0.701,0 c 0.574,0 0.99,0.095 1.245,0.285 0.256,0.189 0.384,0.496 0.384,0.923 0,0.392 -0.121,0.683 -0.363,0.873 -0.242,0.189 -0.616,0.284 -1.123,0.284 l -0.844,0 0,-2.365 z m 2.713,1.221 c 0,-0.493 -0.167,-0.871 -0.502,-1.134 -0.335,-0.263 -0.809,-0.394 -1.423,-0.394 l -0.788,0 0,-2.106 -0.355,0 0,5.099 1.248,0 c 1.213,0 1.82,-0.489 1.82,-1.465" /><path
         inkscape:connector-curvature="0"
         id="path366"
         style="fill:#161616;fill-opacity:1;fill-rule:nonzero;stroke:none"
         d="m 204.8252,568.6821 -2.787,0 0,5.099 2.787,0 0,-0.328 -2.431,0 0,-1.929 2.295,0 0,-0.328 -2.295,0 0,-2.186 2.431,0 0,-0.328 z" /><path
         inkscape:connector-curvature="0"
         id="path370"
         style="fill:#161616;fill-opacity:1;fill-rule:nonzero;stroke:none"
         d="m 208.1563,573.5332 c -0.64,0 -1.143,-0.205 -1.51,-0.614 -0.367,-0.409 -0.552,-0.969 -0.552,-1.68 0,-0.729 0.173,-1.294 0.52,-1.696 0.347,-0.402 0.842,-0.604 1.486,-0.604 0.428,0 0.821,0.055 1.179,0.165 l 0,-0.314 c -0.337,-0.119 -0.758,-0.178 -1.263,-0.178 -0.716,0 -1.279,0.231 -1.691,0.694 -0.412,0.462 -0.618,1.109 -0.618,1.939 0,0.518 0.098,0.975 0.295,1.371 0.196,0.395 0.479,0.7 0.848,0.916 0.368,0.214 0.797,0.322 1.285,0.322 0.498,0 0.943,-0.093 1.336,-0.279 l -0.143,-0.321 c -0.372,0.186 -0.763,0.279 -1.172,0.279" /><path
         inkscape:connector-curvature="0"
         id="path374"
         style="fill:#161616;fill-opacity:1;fill-rule:nonzero;stroke:none"
         d="m 211.7451,568.6821 -0.359,0 0,4.764 -1.657,0 0,0.335 3.673,0 0,-0.335 -1.657,0 0,-4.764 z" /><path
         inkscape:connector-curvature="0"
         id="path378"
         style="fill:#161616;fill-opacity:1;fill-rule:nonzero;stroke:none"
         d="m 218.2563,568.6821 -1.901,4.708 -0.028,0 c 0.019,-0.288 0.028,-0.583 0.028,-0.886 l 0,-3.822 -0.341,0 0,5.099 0.551,0 1.807,-4.486 0.02,0 1.807,4.486 0.537,0 0,-5.099 -0.359,0 0,3.864 c 0,0.27 0.014,0.549 0.042,0.838 l -0.028,0 -1.908,-4.702 -0.227,0 z" /><path
         inkscape:connector-curvature="0"
         id="path382"
         style="fill:#161616;fill-opacity:1;fill-rule:nonzero;stroke:none"
         d="m 222.292,571.2388 c 0,-0.73 0.163,-1.295 0.489,-1.693 0.325,-0.4 0.792,-0.599 1.402,-0.599 0.614,0 1.083,0.198 1.407,0.593 0.324,0.395 0.487,0.962 0.487,1.699 0,0.734 -0.163,1.297 -0.487,1.689 -0.324,0.392 -0.791,0.588 -1.4,0.588 -0.607,0 -1.075,-0.198 -1.404,-0.593 -0.329,-0.395 -0.494,-0.956 -0.494,-1.684 m 4.172,0 c 0,-0.81 -0.202,-1.45 -0.607,-1.921 -0.405,-0.471 -0.963,-0.706 -1.674,-0.706 -0.709,0 -1.266,0.235 -1.671,0.706 -0.405,0.471 -0.607,1.114 -0.607,1.928 0,0.811 0.204,1.45 0.613,1.916 0.408,0.467 0.965,0.7 1.672,0.7 0.711,0 1.268,-0.235 1.67,-0.704 0.403,-0.468 0.604,-1.107 0.604,-1.919" /><path
         inkscape:connector-curvature="0"
         id="path386"
         style="fill:#161616;fill-opacity:1;fill-rule:nonzero;stroke:none"
         d="m 227.9917,571.2104 0.973,0 c 0.43,0 0.764,0.096 1.001,0.288 0.237,0.191 0.356,0.475 0.356,0.849 0,0.388 -0.117,0.671 -0.349,0.847 -0.233,0.177 -0.612,0.266 -1.137,0.266 l -0.844,0 0,-2.25 z m 0,-0.307 0,-2.221 -0.355,0 0,5.098 1.213,0 c 0.633,0 1.1,-0.117 1.402,-0.35 0.303,-0.234 0.453,-0.586 0.453,-1.055 0,-0.342 -0.089,-0.63 -0.27,-0.865 -0.18,-0.235 -0.454,-0.404 -0.821,-0.506 l 1.384,-2.322 -0.425,0 -1.315,2.221 -1.266,0 z" /><path
         inkscape:connector-curvature="0"
         id="path390"
         style="fill:#161616;fill-opacity:1;fill-rule:nonzero;stroke:none"
         d="m 234.667,568.6821 -2.787,0 0,5.099 2.787,0 0,-0.328 -2.431,0 0,-1.929 2.295,0 0,-0.328 -2.295,0 0,-2.186 2.431,0 0,-0.328 z" /></g></g></svg>