<?xml version="1.0" encoding="UTF-8" standalone="no"?>
<!-- Created with Inkscape (http://www.inkscape.org/) -->

<svg
   xmlns:dc="http://purl.org/dc/elements/1.1/"
   xmlns:cc="http://creativecommons.org/ns#"
   xmlns:rdf="http://www.w3.org/1999/02/22-rdf-syntax-ns#"
   xmlns:svg="http://www.w3.org/2000/svg"
   xmlns="http://www.w3.org/2000/svg"
   xmlns:sodipodi="http://sodipodi.sourceforge.net/DTD/sodipodi-0.dtd"
   xmlns:inkscape="http://www.inkscape.org/namespaces/inkscape"
   width="1400"
   height="425"
   id="svg6137"
   version="1.1"
   inkscape:version="0.48.4 r9939"
   sodipodi:docname="banner_linkedin.svg"
   inkscape:export-filename="/home/roland/Work/EdgeMind/Visual_identity/logos/banner_linkedin.png"
   inkscape:export-xdpi="240"
   inkscape:export-ydpi="240">
  <defs
     id="defs6139" />
  <sodipodi:namedview
     id="base"
     pagecolor="#ffffff"
     bordercolor="#666666"
     borderopacity="1.0"
     inkscape:pageopacity="0.0"
     inkscape:pageshadow="2"
     inkscape:zoom="0.35"
     inkscape:cx="-13.71445"
     inkscape:cy="54.962367"
     inkscape:document-units="px"
     inkscape:current-layer="layer1"
     showgrid="false"
     inkscape:window-width="1920"
     inkscape:window-height="1006"
     inkscape:window-x="0"
     inkscape:window-y="0"
     inkscape:window-maximized="1"
     fit-margin-top="0"
     fit-margin-left="0"
     fit-margin-right="0"
     fit-margin-bottom="0" />
  <metadata
     id="metadata6142">
    <rdf:RDF>
      <cc:Work
         rdf:about="">
        <dc:format>image/svg+xml</dc:format>
        <dc:type
           rdf:resource="http://purl.org/dc/dcmitype/StillImage" />
        <dc:title></dc:title>
      </cc:Work>
    </rdf:RDF>
  </metadata>
  <g
     inkscape:label="Calque 1"
     inkscape:groupmode="layer"
     id="layer1"
     transform="translate(-388.71445,-162.32454)">
    <g
       id="g3528"
       transform="translate(0,-22)"
       style="opacity:0.15">
      <g
         transform="matrix(0.63823262,0,0,0.63823262,-47.594499,-228.51938)"
         id="g3502">
        <path
           inkscape:connector-curvature="0"
           id="path738"
           style="fill:#9a9898;fill-opacity:1;fill-rule:nonzero;stroke:none"
           d="m 968.10602,1043.8224 c -88.34899,0 -159.97174,-71.62294 -159.97174,-159.97763 0,-88.34315 71.62275,-159.95449 159.97174,-159.95449 41.12528,0 78.61108,15.53395 106.95208,41.02264 -31.3303,-34.79308 -76.72277,-56.6878 -127.22665,-56.6878 -94.5272,0 -171.15299,76.6315 -171.15299,171.16449 0,94.5272 76.62579,171.15299 171.15299,171.15299 23.90277,0 46.63037,-4.9175 67.29855,-13.7598 -14.8722,4.5638 -30.66285,7.0396 -47.02398,7.0396" />
        <path
           inkscape:connector-curvature="0"
           id="path742"
           style="fill:#2f2b2c;fill-opacity:1;fill-rule:nonzero;stroke:none"
           d="m 1060.6017,787.21039 c 51.7647,64.03533 41.8099,157.92953 -22.2484,209.69416 -30.6343,24.76985 -68.11431,35.36335 -104.53894,32.71085 43.06493,9.8632 90.05474,0.6047 127.07834,-29.3222 64.0526,-51.7706 74.0073,-145.64153 22.237,-209.69421 -26.989,-33.41825 -65.4446,-52.06697 -105.1437,-54.95356 31.4216,7.18794 60.7724,24.536 82.6157,51.56496" />
        <path
           inkscape:connector-curvature="0"
           id="path746"
           style="fill:#2f2b2c;fill-opacity:1;fill-rule:nonzero;stroke:none"
           d="m 951.32045,828.26848 0,14.62097 -66.81937,0 c -8.52285,0 -15.26583,1.99117 -20.05209,5.93884 -4.68928,3.86187 -7.93527,9.32151 -9.65809,16.24111 l -1.89967,7.67855 7.88392,0 75.72444,0 0,13.42343 -76.95666,0 -6.17251,0 0,6.18392 0,17.34782 0,6.17251 6.17251,0 91.77752,0 0,14.63283 -108.82322,0 0,-51.34247 c 0,-8.03225 1.01544,-15.37445 3.00068,-21.82626 1.91679,-6.24096 4.7178,-11.59199 8.29466,-15.87646 3.5027,-4.19274 7.80976,-7.46725 12.80139,-9.73225 5.06009,-2.2933 10.91313,-3.46254 17.4051,-3.46254 l 67.32139,0" />
        <path
           inkscape:connector-curvature="0"
           id="path750"
           style="fill:#9a9898;fill-opacity:1;fill-rule:nonzero;stroke:none"
           d="m 999.56526,828.26848 c 8.04364,0 15.37424,1.02685 21.81484,3.00616 6.2524,1.9282 11.5977,4.72351 15.8877,8.28919 4.2043,3.50269 7.4674,7.81546 9.7322,12.82968 2.2933,5.03156 3.4628,10.89602 3.4628,17.37658 l 0,60.73837 -14.6326,0 0,-60.23636 c 0,-8.51144 -1.991,-15.25989 -5.9272,-20.04045 -3.8507,-4.70662 -9.3273,-7.9469 -16.2414,-9.65238 l -7.6671,-1.91679 0,7.8894 0,75.72444 -13.44034,0 0,-76.93932 0,-6.19532 -6.1725,0 -17.34805,0 -6.17251,0 0,6.19532 0,85.17146 -14.6269,0 0,-102.23998 51.33106,0" />
      </g>
      <g
         transform="matrix(0.35929379,0,0,0.35929379,1070.2238,16.987481)"
         id="g3508">
        <path
           inkscape:connector-curvature="0"
           id="path754"
           style="fill:#2f2b2c;fill-opacity:1;fill-rule:nonzero;stroke:none"
           d="m 1214.4398,937.42714 -65.804,0 0,-114.26005 65.804,0 0,19.85243 -41.5817,0 0,25.09529 38.6837,0 0,19.84101 -38.6837,0 0,29.47058 41.5817,0 0,20.00074 z" />
        <path
           inkscape:connector-curvature="0"
           id="path758"
           style="fill:#2f2b2c;fill-opacity:1;fill-rule:nonzero;stroke:none"
           d="m 1278.6846,920.00082 c 6.0927,0 10.5652,-1.77394 13.4061,-5.31679 2.841,-3.54241 4.3869,-9.55518 4.6437,-18.04974 l 0,-2.58401 c 0,-9.36714 -1.4376,-16.09871 -4.3356,-20.155 -2.898,-4.06723 -7.5873,-6.10405 -14.1021,-6.10405 -5.3168,0 -9.4527,2.25907 -12.3906,6.76032 -2.9437,4.51221 -4.4155,11.06716 -4.4155,19.65847 0,8.59678 1.4832,15.04905 4.4611,19.3504 2.9607,4.28995 7.2051,6.4404 12.7329,6.4404 m -8.3688,18.99672 c -10.2628,0 -18.3293,-3.98737 -24.188,-11.95709 -5.8588,-7.9752 -8.791,-19.01954 -8.791,-33.14442 0,-14.33026 2.9836,-25.49416 8.945,-33.48077 5.9729,-8.00395 14.1877,-12.00273 24.6729,-12.00273 10.9816,0 19.3733,4.26713 25.1578,12.8128 l 0.7759,0 c -1.1923,-6.50338 -1.7913,-12.32219 -1.7913,-17.42221 l 0,-27.98183 23.9085,0 0,121.60768 -18.2836,0 -4.6095,-11.33551 -1.0154,0 c -5.4138,8.60272 -13.6799,12.90408 -24.7813,12.90408" />
        <path
           inkscape:connector-curvature="0"
           id="path762"
           style="fill:#2f2b2c;fill-opacity:1;fill-rule:nonzero;stroke:none"
           d="m 1367.4643,878.66397 c 0,4.73492 1.0782,8.48862 3.2403,11.25518 2.1621,2.76109 5.4594,4.13022 9.8977,4.13022 4.4782,0 7.7527,-1.36913 9.8464,-4.13022 2.0879,-2.76656 3.1204,-6.52026 3.1204,-11.25518 0,-10.53091 -4.3241,-15.79066 -12.9668,-15.79066 -8.7567,0 -13.138,5.25975 -13.138,15.79066 m -8.6711,71.12051 c 0,3.28592 1.5745,5.85897 4.7292,7.73012 3.149,1.88256 7.5644,2.81813 13.2463,2.81813 8.5457,0 15.2431,-1.16969 20.0864,-3.52004 4.849,-2.33893 7.2678,-5.54498 7.2678,-9.61222 0,-3.28044 -1.4262,-5.55092 -4.3014,-6.80003 -2.8638,-1.24362 -7.2849,-1.87114 -13.2806,-1.87114 l -12.345,0 c -4.3812,0 -8.0436,1.02685 -10.9873,3.08602 -2.9436,2.05963 -4.4154,4.78056 -4.4154,8.16916 m 67.4469,-99.73538 0,12.11089 -13.6742,3.52552 c 2.4986,3.90796 3.748,8.28918 3.748,13.12085 0,9.38449 -3.2688,16.69201 -9.8065,21.92894 -6.5433,5.23693 -15.6252,7.85563 -27.2457,7.85563 l -4.2899,-0.23275 -3.5199,-0.38792 c -2.4473,1.87114 -3.6738,3.95314 -3.6738,6.24644 0,3.44565 4.3755,5.16299 13.1323,5.16299 l 14.8551,0 c 9.5839,0 16.8916,2.05918 21.9175,6.17251 5.0372,4.11881 7.5416,10.15988 7.5416,18.13508 0,10.21144 -4.2557,18.12959 -12.7785,23.76038 -8.5115,5.62485 -20.7481,8.44298 -36.6928,8.44298 -12.191,0 -21.5011,-2.12808 -27.9418,-6.3724 -6.4291,-4.24431 -9.6523,-10.1941 -9.6523,-17.86124 0,-5.25976 1.6372,-9.65832 4.9288,-13.20666 3.2745,-3.5424 8.095,-6.06982 14.4615,-7.58727 -2.453,-1.03233 -4.5923,-2.73827 -6.4178,-5.11143 -1.8198,-2.37317 -2.7325,-4.89465 -2.7325,-7.54164 0,-3.33156 0.9584,-6.10953 2.8865,-8.32296 1.9282,-2.21936 4.7122,-4.39263 8.3688,-6.53213 -4.5923,-1.98524 -8.2262,-5.15707 -10.9074,-9.53829 -2.6755,-4.37529 -4.0218,-9.52688 -4.0218,-15.47668 0,-9.52688 3.0977,-16.90331 9.3044,-22.11742 6.1896,-5.2027 15.049,-7.80953 26.5726,-7.80953 2.4473,0 5.3453,0.22362 8.7111,0.65581 3.3658,0.45181 5.5164,0.77037 6.452,0.98121 l 30.4746,0 z" />
        <path
           inkscape:connector-curvature="0"
           id="path766"
           style="fill:#2f2b2c;fill-opacity:1;fill-rule:nonzero;stroke:none"
           d="m 1483.0625,865.37152 c -5.0601,0 -9.0135,1.6028 -11.8772,4.80337 -2.8638,3.20606 -4.5125,7.75249 -4.9232,13.63428 l 33.4468,0 c -0.1027,-5.88179 -1.6373,-10.42822 -4.6152,-13.63428 -2.9607,-3.20057 -6.9825,-4.80337 -12.0312,-4.80337 m 3.3658,73.62511 c -14.0736,0 -25.0723,-3.88515 -32.9904,-11.64356 -7.9239,-7.7639 -11.8773,-18.7626 -11.8773,-32.99017 0,-14.63831 3.6511,-25.9624 10.9702,-33.94901 7.3249,-7.99802 17.4508,-12.00273 30.3777,-12.00273 12.3449,0 21.9574,3.51411 28.8316,10.55373 6.8856,7.02822 10.3199,16.74906 10.3199,29.14564 l 0,11.58058 -56.3456,0 c 0.2569,6.75986 2.2591,12.05384 6.0185,15.8646 3.7537,3.79934 9.0134,5.69331 15.785,5.69331 5.2597,0 10.24,-0.54766 14.9292,-1.63703 4.6836,-1.09531 9.584,-2.84095 14.6897,-5.23693 l 0,18.44906 c -4.1702,2.08199 -8.6142,3.63368 -13.3605,4.64912 -4.7463,1.00996 -10.5309,1.52339 -17.348,1.52339" />
        <path
           inkscape:connector-curvature="0"
           id="path770"
           style="fill:#9a9898;fill-opacity:1;fill-rule:nonzero;stroke:none"
           d="m 1601.614,937.42714 -42.5858,-105.50307 -0.6332,0 c 0.4222,6.46321 0.6332,13.06928 0.6332,19.84101 l 0,85.66206 -7.6671,0 0,-114.26005 12.3564,0 40.4807,100.51168 0.4678,0 40.4921,-100.51168 12.0312,0 0,114.26005 -8.0436,0 0,-86.59763 c 0,-6.0356 0.314,-12.28797 0.9355,-18.75164 l -0.6218,0 -42.7511,105.34927 -5.0943,0 z" />
        <path
           d="m 1701.4996,937.42486 -7.7299,0 0,-84.9492 7.7299,0 0,84.9492 z m -8.8309,-108.55533 c 0,-5.00281 1.6487,-7.496 4.9232,-7.496 1.6144,0 2.8866,0.64486 3.7993,1.94554 0.9128,1.30615 1.3578,3.15448 1.3578,5.55046 0,2.35035 -0.445,4.18727 -1.3578,5.55092 -0.9127,1.35772 -2.1849,2.03636 -3.7993,2.03636 -3.2745,0 -4.9232,-2.52696 -4.9232,-7.58728"
           style="fill:#9a9898;fill-opacity:1;fill-rule:nonzero;stroke:none"
           id="path772"
           inkscape:connector-curvature="0" />
        <path
           inkscape:connector-curvature="0"
           id="path776"
           style="fill:#9a9898;fill-opacity:1;fill-rule:nonzero;stroke:none"
           d="m 1795.4409,937.42714 0,-55.09617 c 0,-8.54567 -1.7913,-14.75241 -5.3909,-18.64303 -3.5883,-3.87373 -9.1732,-5.82474 -16.7263,-5.82474 -10.1601,0 -17.5933,2.57305 -22.3168,7.7073 -4.7007,5.12831 -7.0625,13.45173 -7.0625,24.96933 l 0,46.88731 -7.747,0 0,-84.9492 6.5661,0 1.489,11.64356 0.4678,0 c 5.5164,-8.85372 15.3457,-13.29199 29.4591,-13.29199 19.2877,0 28.9288,10.34242 28.9288,31.03367 l 0,55.56396 -7.6673,0 z" />
        <path
           inkscape:connector-curvature="0"
           id="path780"
           style="fill:#9a9898;fill-opacity:1;fill-rule:nonzero;stroke:none"
           d="m 1867.9755,857.86183 c -9.2818,0 -16.2471,3.2631 -20.9135,9.77195 -4.6551,6.51479 -6.9885,15.97915 -6.9885,28.38121 0,24.06251 9.3502,36.11087 28.0558,36.11087 9.5839,0 16.6121,-2.80124 21.096,-8.36905 4.4899,-5.57328 6.7261,-14.77522 6.7261,-27.58802 l 0,-1.32897 c 0,-13.13227 -2.202,-22.5738 -6.6061,-28.32964 -4.3985,-5.76176 -11.5294,-8.64835 -21.3698,-8.64835 m 0,-7.02822 c 6.1497,0 11.4665,1.1236 15.9444,3.35985 4.4785,2.24219 8.4887,6.07576 12.0315,11.48931 l 0.4678,0 c -0.3058,-6.56043 -0.4678,-13.00083 -0.4678,-19.31025 l 0,-30.54895 7.6557,0 0,121.60175 -5.0717,0 -1.9565,-12.9666 -0.6275,0 c -6.4637,9.69209 -15.7336,14.5411 -27.8221,14.5411 -11.7175,0 -20.6908,-3.6565 -26.8861,-10.94165 -6.2013,-7.30204 -9.2987,-17.9297 -9.2987,-31.88938 0,-14.69536 3.0746,-25.92772 9.2243,-33.68066 6.1497,-7.76983 15.0832,-11.65452 26.8067,-11.65452" />
        <path
           inkscape:connector-curvature="0"
           id="path784"
           style="fill:#231f20;fill-opacity:1;fill-rule:nonzero;stroke:none"
           d="m 1676.2208,975.97827 -15.1517,0 0,-27.73041 15.1517,0 0,1.77987 -13.2235,0 0,10.48527 12.4876,0 0,1.78535 -12.4876,0 0,11.89457 13.2235,0 0,1.78535 z" />
        <path
           inkscape:connector-curvature="0"
           id="path788"
           style="fill:#231f20;fill-opacity:1;fill-rule:nonzero;stroke:none"
           d="m 1699.4853,975.97827 -2.2306,0 -8.1863,-12.93831 -8.346,12.93831 -2.1506,0 9.3386,-14.46124 -8.4829,-13.26917 2.1735,0 7.5017,11.87722 7.6101,-11.87722 2.0708,0 -8.6027,13.22354 9.3044,14.50687 z" />
        <path
           inkscape:connector-curvature="0"
           id="path792"
           style="fill:#231f20;fill-opacity:1;fill-rule:nonzero;stroke:none"
           d="m 1705.3349,962.85285 3.8221,0 c 3.1205,0 5.3796,-0.52483 6.7715,-1.54575 1.3977,-1.03826 2.088,-2.70997 2.088,-5.02609 0,-2.13904 -0.6618,-3.72495 -1.9739,-4.75773 -1.3178,-1.02685 -3.3543,-1.54028 -6.104,-1.54028 l -4.6037,0 0,12.86985 z m 14.7638,-6.64029 c 0,2.67574 -0.9014,4.73491 -2.7326,6.16109 -1.8141,1.42618 -4.3983,2.1395 -7.7299,2.1395 l -4.3013,0 0,11.46649 -1.9282,0 0,-27.73635 6.7886,0 c 6.6061,0 9.9034,2.66388 9.9034,7.96927" />
        <path
           inkscape:connector-curvature="0"
           id="path796"
           style="fill:#231f20;fill-opacity:1;fill-rule:nonzero;stroke:none"
           d="m 1741.2906,975.97827 -15.1518,0 0,-27.73041 15.1518,0 0,1.77987 -13.2121,0 0,10.48527 12.4762,0 0,1.78535 -12.4762,0 0,11.89457 13.2121,0 0,1.78535 z" />
        <path
           inkscape:connector-curvature="0"
           id="path800"
           style="fill:#231f20;fill-opacity:1;fill-rule:nonzero;stroke:none"
           d="m 1759.4076,949.59417 c -3.4741,0 -6.2067,1.10078 -8.2091,3.33156 -1.9966,2.23031 -3.0006,5.27116 -3.0006,9.13896 0,3.97596 0.9355,7.03962 2.8181,9.2243 1.894,2.18513 4.5923,3.28592 8.0893,3.28592 2.3275,0 4.4668,-0.30121 6.4178,-0.88994 l 0,1.70001 c -1.8369,0.65034 -4.1302,0.9698 -6.8742,0.9698 -3.8963,0 -6.9655,-1.24363 -9.1903,-3.77652 -2.2534,-2.51556 -3.3658,-6.02419 -3.3658,-10.5478 0,-2.81813 0.5363,-5.30539 1.603,-7.4563 1.0725,-2.13904 2.5957,-3.81075 4.6152,-4.97999 2.0023,-1.1697 4.3355,-1.75158 6.9825,-1.75158 2.7098,0 5.14,0.50202 7.2793,1.51746 l -0.7816,1.74017 c -2.0252,-1.00404 -4.153,-1.50605 -6.3836,-1.50605" />
        <path
           inkscape:connector-curvature="0"
           id="path804"
           style="fill:#231f20;fill-opacity:1;fill-rule:nonzero;stroke:none"
           d="m 1778.928,975.97827 -1.9624,0 0,-25.91631 -9.002,0 0,-1.8141 19.9779,0 0,1.8141 -9.0135,0 0,25.91631 z" />
        <path
           inkscape:connector-curvature="0"
           id="path808"
           style="fill:#231f20;fill-opacity:1;fill-rule:nonzero;stroke:none"
           d="m 1814.3488,975.97827 -10.3429,-25.61419 -0.1551,0 c 0.1049,1.56902 0.1551,3.17182 0.1551,4.81478 l 0,20.79941 -1.8597,0 0,-27.73041 3.0007,0 9.8235,24.38744 0.1141,0 9.8295,-24.38744 2.9148,0 0,27.73041 -1.951,0 0,-21.0276 c 0,-1.46588 0.082,-2.97193 0.2282,-4.55236 l -0.1506,0 -10.3712,25.57996 -1.2377,0 z" />
        <path
           inkscape:connector-curvature="0"
           id="path812"
           style="fill:#231f20;fill-opacity:1;fill-rule:nonzero;stroke:none"
           d="m 1836.2988,962.0624 c 0,3.97597 0.8899,7.03963 2.6524,9.2129 1.7685,2.18513 4.3128,3.26903 7.6329,3.26903 3.343,0 5.8932,-1.0839 7.6558,-3.2348 1.7684,-2.15046 2.647,-5.22553 2.647,-9.24713 0,-3.98782 -0.8786,-7.05103 -2.647,-9.19053 -1.7626,-2.11622 -4.3014,-3.18871 -7.6101,-3.18871 -3.3142,0 -5.8531,1.0839 -7.6443,3.22294 -1.7968,2.14498 -2.6867,5.20271 -2.6867,9.1563 m 22.6874,0 c 0,4.40952 -1.0953,7.8894 -3.2914,10.45105 -2.2134,2.5726 -5.2483,3.84498 -9.1107,3.84498 -3.8564,0 -6.8853,-1.27238 -9.0933,-3.84498 -2.1961,-2.56165 -3.2973,-6.05841 -3.2973,-10.48527 0,-4.40998 1.1126,-7.88986 3.3315,-10.42823 2.2249,-2.52742 5.2484,-3.79934 9.1048,-3.79934 3.8509,0 6.8858,1.28333 9.0764,3.82216 2.1847,2.54978 3.28,6.04107 3.28,10.43963" />
        <path
           inkscape:connector-curvature="0"
           id="path816"
           style="fill:#231f20;fill-opacity:1;fill-rule:nonzero;stroke:none"
           d="m 1867.2959,962.22944 5.3054,0 c 2.3275,0 4.1416,-0.52484 5.4364,-1.56857 1.2892,-1.04967 1.9282,-2.58994 1.9282,-4.62676 0,-2.10481 -0.6275,-3.64508 -1.8826,-4.60348 -1.2719,-0.9698 -3.3315,-1.44352 -6.1839,-1.44352 l -4.6035,0 0,12.24233 z m 0,1.6603 0,12.08807 -1.9282,0 0,-27.73041 6.5947,0 c 3.4456,0 5.984,0.633 7.6329,1.89397 1.637,1.27785 2.4644,3.19464 2.4644,5.75035 0,1.85974 -0.4906,3.4169 -1.4718,4.70069 -0.9812,1.27786 -2.4758,2.19609 -4.467,2.73827 l 7.5302,12.64713 -2.3161,0 -7.1423,-12.08807 -6.8968,0 z" />
        <path
           inkscape:connector-curvature="0"
           id="path820"
           style="fill:#231f20;fill-opacity:1;fill-rule:nonzero;stroke:none"
           d="m 1903.6076,975.97827 -15.1517,0 0,-27.73041 15.1517,0 0,1.77987 -13.2235,0 0,10.48527 12.4874,0 0,1.78535 -12.4874,0 0,11.89457 13.2235,0 0,1.78535 z" />
      </g>
    </g>
  </g>
</svg>
