<?xml version="1.0" encoding="UTF-8" standalone="no"?>
<!-- Created with Inkscape (http://www.inkscape.org/) -->

<svg
   width="1368.0249"
   height="415.55399"
   id="svg6291"
   version="1.1"
   inkscape:version="1.1.1 (1:1.1+202109281949+c3084ef5ed)"
   sodipodi:docname="logo_edgemind_hz_white.svg"
   inkscape:export-filename="/home/roland/Work/EdgeMind/Visual_identity/logos/logo_edgemind_hz.png"
   inkscape:export-xdpi="1024"
   inkscape:export-ydpi="1024"
   xmlns:inkscape="http://www.inkscape.org/namespaces/inkscape"
   xmlns:sodipodi="http://sodipodi.sourceforge.net/DTD/sodipodi-0.dtd"
   xmlns="http://www.w3.org/2000/svg"
   xmlns:svg="http://www.w3.org/2000/svg"
   xmlns:rdf="http://www.w3.org/1999/02/22-rdf-syntax-ns#"
   xmlns:cc="http://creativecommons.org/ns#"
   xmlns:dc="http://purl.org/dc/elements/1.1/">
  <defs
     id="defs6293" />
  <sodipodi:namedview
     id="base"
     pagecolor="#ffffff"
     bordercolor="#666666"
     borderopacity="1.0"
     inkscape:pageopacity="0.0"
     inkscape:pageshadow="2"
     inkscape:zoom="0.35"
     inkscape:cx="98.571429"
     inkscape:cy="-7.1428571"
     inkscape:document-units="px"
     inkscape:current-layer="layer1"
     showgrid="false"
     fit-margin-top="0"
     fit-margin-left="0"
     fit-margin-right="0"
     fit-margin-bottom="0"
     inkscape:window-width="1920"
     inkscape:window-height="997"
     inkscape:window-x="0"
     inkscape:window-y="868"
     inkscape:window-maximized="1"
     inkscape:pagecheckerboard="0" />
  <metadata
     id="metadata6296">
    <rdf:RDF>
      <cc:Work
         rdf:about="">
        <dc:format>image/svg+xml</dc:format>
        <dc:type
           rdf:resource="http://purl.org/dc/dcmitype/StillImage" />
      </cc:Work>
    </rdf:RDF>
  </metadata>
  <g
     inkscape:label="Calque 1"
     inkscape:groupmode="layer"
     id="layer1"
     transform="translate(-276.53575,-449.14414)">
    <g
       transform="matrix(6.9252074,0,0,-6.9252074,-206.32295,2121.1953)"
       id="g6234"
       style="fill:#ffffff;stroke-width:0.1805">
      <path
         d="m 103.2808,182.6162 c -15.487,0 -28.042,12.555 -28.042,28.043 0,15.486 12.555,28.039 28.042,28.039 7.209,0 13.78,-2.723 18.748,-7.191 -5.492,6.099 -13.449,9.937 -22.302,9.937 -16.571,0 -30.002,-13.433 -30.002,-30.004 0,-16.57 13.431,-30.002 30.002,-30.002 4.189,0 8.175,0.862 11.798,2.412 -2.608,-0.8 -5.375,-1.234 -8.244,-1.234"
         style="fill:#ffffff;fill-opacity:1;fill-rule:nonzero;stroke:none;stroke-width:0.1805"
         id="path652"
         inkscape:connector-curvature="0" />
      <path
         d="m 119.4951,227.5986 c 9.074,-11.225 7.329,-27.684 -3.9,-36.758 -5.371,-4.342 -11.94,-6.199 -18.326,-5.734 7.549,-1.729 15.786,-0.106 22.276,5.14 11.228,9.075 12.974,25.53 3.899,36.758 -4.732,5.858 -11.472,9.127 -18.432,9.633 5.509,-1.26 10.653,-4.301 14.483,-9.039"
         style="fill:#ffffff;fill-opacity:1;fill-rule:nonzero;stroke:none;stroke-width:0.1805"
         id="path656"
         inkscape:connector-curvature="0" />
      <path
         d="m 100.3384,220.4014 v -2.563 h -11.713 c -1.494,0 -2.675,-0.349 -3.515,-1.041 -0.822,-0.677 -1.391,-1.634 -1.693,-2.847 l -0.333,-1.346 h 1.382 13.274 v -2.353 h -13.49 -1.082 v -1.084 -3.041 -1.082 h 1.082 16.088 v -2.565 h -19.076 v 9 c 0,1.408 0.178,2.695 0.526,3.826 0.336,1.094 0.827,2.032 1.454,2.783 0.613,0.735 1.369,1.309 2.245,1.706 0.886,0.402 1.912,0.607 3.05,0.607 h 11.801"
         style="fill:#ffffff;fill-opacity:1;fill-rule:nonzero;stroke:none;stroke-width:0.1805"
         id="path660"
         inkscape:connector-curvature="0" />
      <path
         d="m 108.7954,220.4014 c 1.41,0 2.695,-0.18 3.825,-0.527 1.095,-0.338 2.032,-0.828 2.784,-1.453 0.736,-0.614 1.308,-1.37 1.706,-2.249 0.402,-0.882 0.606,-1.91 0.606,-3.046 v -10.647 h -2.564 v 10.559 c 0,1.492 -0.349,2.675 -1.039,3.513 -0.676,0.825 -1.635,1.393 -2.848,1.692 l -1.343,0.336 v -1.383 -13.274 h -2.356 v 13.487 1.086 h -1.082 -3.04 -1.083 v -1.086 -14.93 h -2.564 v 17.922 h 8.998"
         style="fill:#ffffff;fill-opacity:1;fill-rule:nonzero;stroke:none;stroke-width:0.1805"
         id="path664"
         inkscape:connector-curvature="0" />
      <path
         d="m 146.4619,201.2666 h -11.535 v 20.029 h 11.535 v -3.48 h -7.289 v -4.399 h 6.781 v -3.478 h -6.781 v -5.166 h 7.289 z"
         style="fill:#ffffff;fill-opacity:1;fill-rule:nonzero;stroke:none;stroke-width:0.1805"
         id="path668"
         inkscape:connector-curvature="0" />
      <path
         d="m 157.7236,204.3213 c 1.068,0 1.852,0.311 2.35,0.932 0.498,0.621 0.769,1.675 0.814,3.164 v 0.453 c 0,1.642 -0.253,2.822 -0.76,3.533 -0.508,0.713 -1.331,1.07 -2.472,1.07 -0.932,0 -1.657,-0.396 -2.172,-1.185 -0.516,-0.791 -0.774,-1.94 -0.774,-3.446 0,-1.507 0.26,-2.638 0.781,-3.392 0.52,-0.752 1.264,-1.129 2.233,-1.129 m -1.467,-3.33 c -1.799,0 -3.213,0.699 -4.24,2.096 -1.027,1.398 -1.541,3.334 -1.541,5.81 0,2.512 0.523,4.469 1.568,5.869 1.047,1.403 2.487,2.104 4.324,2.104 1.926,0 3.397,-0.748 4.411,-2.246 h 0.136 c -0.21,1.14 -0.314,2.16 -0.314,3.054 v 4.905 h 4.191 v -21.317 h -3.205 l -0.808,1.987 h -0.178 c -0.949,-1.508 -2.398,-2.262 -4.344,-2.262"
         style="fill:#ffffff;fill-opacity:1;fill-rule:nonzero;stroke:none;stroke-width:0.1805"
         id="path672"
         inkscape:connector-curvature="0" />
      <path
         d="m 173.2861,211.5674 c 0,-0.83 0.189,-1.488 0.568,-1.973 0.379,-0.484 0.957,-0.724 1.735,-0.724 0.785,0 1.359,0.24 1.725,0.724 0.366,0.485 0.548,1.143 0.548,1.973 0,1.846 -0.758,2.768 -2.273,2.768 -1.535,0 -2.303,-0.922 -2.303,-2.768 m -1.52,-12.467 c 0,-0.576 0.276,-1.027 0.829,-1.355 0.552,-0.33 1.326,-0.494 2.322,-0.494 1.498,0 2.672,0.205 3.521,0.617 0.85,0.41 1.274,0.972 1.274,1.685 0,0.575 -0.251,0.973 -0.754,1.192 -0.502,0.218 -1.278,0.328 -2.328,0.328 h -2.165 c -0.767,0 -1.409,-0.18 -1.925,-0.541 -0.516,-0.361 -0.774,-0.838 -0.774,-1.432 m 11.823,17.483 v -2.123 l -2.397,-0.618 c 0.438,-0.685 0.657,-1.453 0.657,-2.3 0,-1.645 -0.573,-2.926 -1.719,-3.844 -1.147,-0.918 -2.739,-1.377 -4.776,-1.377 l -0.753,0.041 -0.616,0.068 c -0.429,-0.328 -0.644,-0.693 -0.644,-1.095 0,-0.604 0.767,-0.905 2.302,-0.905 h 2.603 c 1.681,0 2.962,-0.361 3.843,-1.082 0.882,-0.722 1.322,-1.781 1.322,-3.179 0,-1.79 -0.746,-3.178 -2.24,-4.165 -1.493,-0.986 -3.637,-1.48 -6.432,-1.48 -2.138,0 -3.77,0.373 -4.898,1.117 -1.128,0.744 -1.692,1.787 -1.692,3.131 0,0.922 0.287,1.693 0.863,2.315 0.575,0.621 1.42,1.064 2.535,1.33 -0.429,0.181 -0.804,0.48 -1.124,0.896 -0.32,0.416 -0.48,0.858 -0.48,1.322 0,0.584 0.169,1.071 0.507,1.459 0.338,0.389 0.826,0.77 1.467,1.145 -0.805,0.348 -1.442,0.904 -1.912,1.672 -0.47,0.767 -0.705,1.67 -0.705,2.713 0,1.67 0.543,2.963 1.631,3.877 1.085,0.912 2.638,1.369 4.658,1.369 0.428,0 0.937,-0.039 1.527,-0.115 0.589,-0.079 0.966,-0.135 1.13,-0.172 z"
         style="fill:#ffffff;fill-opacity:1;fill-rule:nonzero;stroke:none;stroke-width:0.1805"
         id="path676"
         inkscape:connector-curvature="0" />
      <path
         d="m 193.5488,213.8975 c -0.886,0 -1.58,-0.281 -2.082,-0.842 -0.502,-0.562 -0.79,-1.359 -0.863,-2.39 h 5.863 c -0.018,1.031 -0.287,1.828 -0.809,2.39 -0.519,0.561 -1.223,0.842 -2.109,0.842 m 0.59,-12.906 c -2.467,0 -4.394,0.681 -5.782,2.041 -1.389,1.361 -2.082,3.289 -2.082,5.783 0,2.566 0.64,4.551 1.923,5.951 1.284,1.402 3.058,2.104 5.324,2.104 2.164,0 3.849,-0.616 5.054,-1.85 1.207,-1.232 1.81,-2.936 1.81,-5.109 v -2.03 h -9.878 c 0.045,-1.185 0.396,-2.113 1.055,-2.781 0.658,-0.666 1.58,-0.998 2.767,-0.998 0.922,0 1.795,0.096 2.617,0.287 0.822,0.192 1.68,0.498 2.576,0.918 v -3.234 c -0.731,-0.365 -1.511,-0.637 -2.343,-0.815 -0.831,-0.177 -1.846,-0.267 -3.041,-0.267"
         style="fill:#ffffff;fill-opacity:1;fill-rule:nonzero;stroke:none;stroke-width:0.1805"
         id="path680"
         inkscape:connector-curvature="0" />
      <path
         d="m 214.3311,201.2666 -7.466,18.494 h -0.11 c 0.073,-1.133 0.11,-2.291 0.11,-3.478 v -15.016 h -1.344 v 20.029 h 2.166 l 7.096,-17.619 h 0.082 l 7.098,17.619 h 2.109 v -20.029 h -1.41 v 15.18 c 0,1.058 0.055,2.154 0.164,3.287 h -0.109 l -7.494,-18.467 z"
         style="fill:#ffffff;fill-opacity:1;fill-rule:nonzero;stroke:none;stroke-width:0.1805"
         id="path684"
         inkscape:connector-curvature="0" />
      <path
         inkscape:connector-curvature="0"
         id="path686"
         style="fill:#ffffff;fill-opacity:1;fill-rule:nonzero;stroke:none;stroke-width:0.1805"
         d="m 231.84,201.267 h -1.355 v 14.891 h 1.355 z m -1.548,19.029 c 0,0.877 0.288,1.314 0.863,1.314 0.283,0 0.505,-0.113 0.665,-0.341 0.16,-0.229 0.24,-0.553 0.24,-0.973 0,-0.412 -0.08,-0.734 -0.24,-0.973 -0.16,-0.238 -0.382,-0.357 -0.665,-0.357 -0.575,0 -0.863,0.443 -0.863,1.33" />
      <path
         d="m 248.3076,201.2666 v 9.658 c 0,1.498 -0.315,2.586 -0.945,3.268 -0.63,0.679 -1.609,1.021 -2.933,1.021 -1.78,0 -3.084,-0.451 -3.911,-1.351 -0.825,-0.899 -1.239,-2.358 -1.239,-4.377 v -8.219 h -1.358 v 14.891 h 1.152 l 0.26,-2.041 h 0.082 c 0.968,1.552 2.69,2.33 5.165,2.33 3.38,0 5.07,-1.813 5.07,-5.44 v -9.74 z"
         style="fill:#ffffff;fill-opacity:1;fill-rule:nonzero;stroke:none;stroke-width:0.1805"
         id="path690"
         inkscape:connector-curvature="0" />
      <path
         d="m 261.0215,215.2139 c -1.626,0 -2.848,-0.572 -3.666,-1.713 -0.816,-1.142 -1.225,-2.801 -1.225,-4.975 0,-4.218 1.639,-6.33 4.918,-6.33 1.68,0 2.913,0.491 3.699,1.467 0.786,0.977 1.178,2.59 1.178,4.836 v 0.233 c 0,2.302 -0.385,3.957 -1.158,4.966 -0.771,1.01 -2.02,1.516 -3.746,1.516 m 0,1.232 c 1.078,0 2.01,-0.197 2.795,-0.589 0.785,-0.393 1.488,-1.065 2.109,-2.014 h 0.082 c -0.054,1.15 -0.082,2.279 -0.082,3.385 v 5.355 h 1.342 v -21.316 h -0.889 l -0.343,2.273 h -0.11 c -1.133,-1.699 -2.758,-2.549 -4.877,-2.549 -2.054,0 -3.627,0.641 -4.713,1.918 -1.086,1.28 -1.63,3.143 -1.63,5.59 0,2.576 0.539,4.545 1.617,5.904 1.078,1.362 2.644,2.043 4.699,2.043"
         style="fill:#ffffff;fill-opacity:1;fill-rule:nonzero;stroke:none;stroke-width:0.1805"
         id="path694"
         inkscape:connector-curvature="0" />
      <path
         d="m 227.4092,194.5088 h -2.657 v 4.861 h 2.657 v -0.312 h -2.318 v -1.838 h 2.188 v -0.313 h -2.188 v -2.085 h 2.318 z"
         style="fill:#ffffff;fill-opacity:1;fill-rule:nonzero;stroke:none;stroke-width:0.1805"
         id="path698"
         inkscape:connector-curvature="0" />
      <path
         d="m 231.4863,194.5088 h -0.39 l -1.435,2.268 -1.464,-2.268 h -0.376 l 1.636,2.535 -1.486,2.326 h 0.381 l 1.315,-2.082 1.334,2.082 h 0.363 l -1.508,-2.318 z"
         style="fill:#ffffff;fill-opacity:1;fill-rule:nonzero;stroke:none;stroke-width:0.1805"
         id="path702"
         inkscape:connector-curvature="0" />
      <path
         d="m 232.5127,196.8096 h 0.669 c 0.548,0 0.944,0.092 1.188,0.271 0.244,0.182 0.365,0.475 0.365,0.881 0,0.375 -0.116,0.653 -0.346,0.834 -0.23,0.18 -0.587,0.27 -1.07,0.27 h -0.806 z m 2.588,1.164 c 0,-0.469 -0.159,-0.83 -0.479,-1.08 -0.318,-0.25 -0.772,-0.375 -1.356,-0.375 h -0.753 v -2.01 h -0.339 v 4.862 h 1.191 c 1.158,0 1.736,-0.467 1.736,-1.397"
         style="fill:#ffffff;fill-opacity:1;fill-rule:nonzero;stroke:none;stroke-width:0.1805"
         id="path706"
         inkscape:connector-curvature="0" />
      <path
         d="m 238.8145,194.5088 h -2.656 v 4.861 h 2.656 v -0.312 h -2.316 v -1.838 h 2.187 v -0.313 h -2.187 v -2.085 h 2.316 z"
         style="fill:#ffffff;fill-opacity:1;fill-rule:nonzero;stroke:none;stroke-width:0.1805"
         id="path710"
         inkscape:connector-curvature="0" />
      <path
         d="m 241.9912,199.1338 c -0.61,0 -1.089,-0.193 -1.439,-0.584 -0.35,-0.391 -0.527,-0.924 -0.527,-1.602 0,-0.697 0.165,-1.234 0.495,-1.617 0.332,-0.383 0.804,-0.576 1.417,-0.576 0.408,0 0.783,0.053 1.125,0.156 v -0.298 c -0.322,-0.114 -0.723,-0.17 -1.205,-0.17 -0.682,0 -1.22,0.218 -1.61,0.662 -0.396,0.441 -0.591,1.056 -0.591,1.849 0,0.494 0.094,0.93 0.282,1.307 0.187,0.375 0.455,0.668 0.808,0.873 0.351,0.205 0.761,0.307 1.224,0.307 0.475,0 0.901,-0.088 1.276,-0.266 l -0.137,-0.305 c -0.355,0.176 -0.728,0.264 -1.118,0.264"
         style="fill:#ffffff;fill-opacity:1;fill-rule:nonzero;stroke:none;stroke-width:0.1805"
         id="path714"
         inkscape:connector-curvature="0" />
      <path
         d="m 245.4121,194.5088 h -0.343 v 4.543 h -1.578 v 0.318 h 3.501 v -0.318 h -1.58 z"
         style="fill:#ffffff;fill-opacity:1;fill-rule:nonzero;stroke:none;stroke-width:0.1805"
         id="path718"
         inkscape:connector-curvature="0" />
      <path
         d="m 251.6211,194.5088 -1.812,4.49 h -0.027 c 0.018,-0.275 0.027,-0.556 0.027,-0.844 v -3.646 h -0.326 v 4.861 h 0.525 l 1.722,-4.275 h 0.021 l 1.723,4.275 h 0.511 v -4.861 h -0.342 v 3.686 c 0,0.257 0.014,0.521 0.04,0.798 h -0.026 l -1.819,-4.484 z"
         style="fill:#ffffff;fill-opacity:1;fill-rule:nonzero;stroke:none;stroke-width:0.1805"
         id="path722"
         inkscape:connector-curvature="0" />
      <path
         d="m 255.4688,196.9482 c 0,-0.697 0.156,-1.234 0.466,-1.615 0.31,-0.383 0.756,-0.573 1.337,-0.573 0.587,0 1.033,0.19 1.343,0.567 0.309,0.377 0.463,0.916 0.463,1.621 0,0.699 -0.154,1.236 -0.463,1.611 -0.31,0.371 -0.754,0.559 -1.335,0.559 -0.581,0 -1.026,-0.19 -1.34,-0.565 -0.315,-0.376 -0.471,-0.912 -0.471,-1.605 m 3.977,0 c 0,-0.773 -0.192,-1.383 -0.576,-1.832 -0.388,-0.451 -0.92,-0.674 -1.598,-0.674 -0.676,0 -1.206,0.223 -1.593,0.674 -0.385,0.449 -0.579,1.062 -0.579,1.838 0,0.773 0.195,1.383 0.584,1.828 0.39,0.443 0.921,0.666 1.596,0.666 0.676,0 1.208,-0.225 1.591,-0.67 0.384,-0.447 0.575,-1.059 0.575,-1.83"
         style="fill:#ffffff;fill-opacity:1;fill-rule:nonzero;stroke:none;stroke-width:0.1805"
         id="path726"
         inkscape:connector-curvature="0" />
      <path
         d="m 260.9033,196.9189 h 0.929 c 0.409,0 0.727,0.092 0.954,0.275 0.226,0.184 0.338,0.454 0.338,0.811 0,0.369 -0.11,0.639 -0.331,0.807 -0.223,0.17 -0.584,0.253 -1.084,0.253 h -0.806 z m 0,-0.291 v -2.119 h -0.339 v 4.861 h 1.157 c 0.604,0 1.048,-0.111 1.337,-0.332 0.288,-0.224 0.433,-0.56 0.433,-1.008 0,-0.326 -0.086,-0.599 -0.259,-0.824 -0.172,-0.224 -0.433,-0.385 -0.782,-0.48 l 1.32,-2.217 h -0.406 l -1.253,2.119 z"
         style="fill:#ffffff;fill-opacity:1;fill-rule:nonzero;stroke:none;stroke-width:0.1805"
         id="path730"
         inkscape:connector-curvature="0" />
      <path
         d="m 267.2676,194.5088 h -2.656 v 4.861 h 2.656 v -0.312 h -2.317 v -1.838 h 2.189 v -0.313 h -2.189 v -2.085 h 2.317 z"
         style="fill:#ffffff;fill-opacity:1;fill-rule:nonzero;stroke:none;stroke-width:0.1805"
         id="path734"
         inkscape:connector-curvature="0" />
    </g>
  </g>
</svg>
