<?xml version="1.0" encoding="UTF-8" standalone="no"?>
<!-- Created with Inkscape (http://www.inkscape.org/) -->

<svg
   xmlns:dc="http://purl.org/dc/elements/1.1/"
   xmlns:cc="http://creativecommons.org/ns#"
   xmlns:rdf="http://www.w3.org/1999/02/22-rdf-syntax-ns#"
   xmlns:svg="http://www.w3.org/2000/svg"
   xmlns="http://www.w3.org/2000/svg"
   xmlns:sodipodi="http://sodipodi.sourceforge.net/DTD/sodipodi-0.dtd"
   xmlns:inkscape="http://www.inkscape.org/namespaces/inkscape"
   width="165.42825"
   height="149.92474"
   id="svg6137"
   version="1.1"
   inkscape:version="0.91 r13725"
   sodipodi:docname="logo_edgemind_original_white.svg">
  <defs
     id="defs6139" />
  <sodipodi:namedview
     id="base"
     pagecolor="#ffffff"
     bordercolor="#666666"
     borderopacity="1.0"
     inkscape:pageopacity="0.0"
     inkscape:pageshadow="2"
     inkscape:zoom="2.8"
     inkscape:cx="-8.0001643"
     inkscape:cy="54.962367"
     inkscape:document-units="px"
     inkscape:current-layer="layer1"
     showgrid="false"
     inkscape:window-width="1920"
     inkscape:window-height="1008"
     inkscape:window-x="0"
     inkscape:window-y="0"
     inkscape:window-maximized="1"
     fit-margin-top="0"
     fit-margin-left="0"
     fit-margin-right="0"
     fit-margin-bottom="0" />
  <metadata
     id="metadata6142">
    <rdf:RDF>
      <cc:Work
         rdf:about="">
        <dc:format>image/svg+xml</dc:format>
        <dc:type
           rdf:resource="http://purl.org/dc/dcmitype/StillImage" />
        <dc:title></dc:title>
      </cc:Work>
    </rdf:RDF>
  </metadata>
  <g
     inkscape:label="Calque 1"
     inkscape:groupmode="layer"
     id="layer1"
     transform="translate(-388.71445,-437.3998)">
    <path
       inkscape:connector-curvature="0"
       id="path308"
       style="fill:#ffffff;fill-opacity:1;fill-rule:nonzero;stroke:none"
       d="m 403.13445,578.48968 -14.42,0 0,-25.0375 14.42,0 0,4.35 -9.11125,0 0,5.4975 8.4775,0 0,4.35 -8.4775,0 0,6.45625 9.11125,0 0,4.38375 z" />
    <path
       inkscape:connector-curvature="0"
       id="path312"
       style="fill:#ffffff;fill-opacity:1;fill-rule:nonzero;stroke:none"
       d="m 417.21107,574.67068 c 1.33625,0 2.315,-0.3875 2.9375,-1.16375 0.6225,-0.77625 0.9625,-2.09501 1.01875,-3.95625 l 0,-0.565 c 0,-2.055 -0.31624,-3.52875 -0.95,-4.41875 -0.635,-0.89125 -1.66374,-1.33625 -3.09124,-1.33625 -1.16501,0 -2.07001,0.495 -2.71501,1.48125 -0.645,0.98875 -0.9675,2.42374 -0.9675,4.3075 0,1.88375 0.325,3.2975 0.97625,4.23875 0.65125,0.9425 1.58126,1.4125 2.79126,1.4125 m -1.83251,4.1625 c -2.24875,0 -4.01624,-0.87501 -5.3,-2.62125 -1.28499,-1.7475 -1.9275,-4.1675 -1.9275,-7.26125 0,-3.14 0.65376,-5.58625 1.96126,-7.3375 1.3075,-1.75375 3.10875,-2.63 5.40374,-2.63 2.40876,0 4.2475,0.9375 5.51501,2.80874 l 0.17,0 c -0.2625,-1.42624 -0.39376,-2.69999 -0.39376,-3.81874 l 0,-6.13125 5.24,0 0,26.6475 -4.00624,0 -1.01,-2.4825 -0.22376,0 c -1.18624,1.88375 -2.99749,2.82625 -5.42875,2.82625" />
    <path
       inkscape:connector-curvature="0"
       id="path316"
       style="fill:#ffffff;fill-opacity:1;fill-rule:nonzero;stroke:none"
       d="m 436.66532,565.61193 c 0,1.03875 0.23625,1.86125 0.71,2.46625 0.47375,0.605 1.19625,0.9075 2.1675,0.9075 0.98126,0 1.70001,-0.3025 2.15751,-0.9075 0.45625,-0.60501 0.685,-1.42751 0.685,-2.46625 0,-2.30625 -0.94751,-3.46 -2.84251,-3.46 -1.91875,0 -2.87749,1.15375 -2.87749,3.46 m -1.90125,15.58375 c 0,0.72 0.345,1.285 1.03625,1.69625 0.69124,0.40999 1.65875,0.615 2.9025,0.615 1.8725,0 3.34,-0.25626 4.40125,-0.77 1.0625,-0.5125 1.59375,-1.21625 1.59375,-2.10625 0,-0.72 -0.315,-1.21625 -0.9425,-1.49 -0.62875,-0.27375 -1.59875,-0.41 -2.91125,-0.41 l -2.70625,0 c -0.95875,0 -1.76125,0.225 -2.40625,0.675 -0.645,0.45125 -0.9675,1.04749 -0.9675,1.79 m 14.78,-21.8525 0,2.655 -2.9975,0.77125 c 0.5475,0.85624 0.8225,1.815 0.8225,2.87625 0,2.055 -0.7175,3.6575 -2.15,4.805 -1.4325,1.14625 -3.4225,1.72 -5.96875,1.72 l -0.94125,-0.0512 -0.77125,-0.085 c -0.535,0.41 -0.80375,0.8675 -0.80375,1.36875 0,0.75375 0.95875,1.13125 2.8775,1.13125 l 3.2525,0 c 2.10125,0 3.7025,0.45125 4.80375,1.3525 1.1025,0.9025 1.65375,2.22625 1.65375,3.9725 0,2.2375 -0.93375,3.97375 -2.80125,5.20625 -1.86625,1.23375 -4.54625,1.85 -8.04,1.85 -2.67125,0 -4.7125,-0.465 -6.1225,-1.39625 -1.41,-0.93 -2.115,-2.23375 -2.115,-3.9125 0,-1.15375 0.36,-2.1175 1.07875,-2.895 0.72,-0.77625 1.77625,-1.32875 3.16875,-1.66 -0.53625,-0.22875 -1.005,-0.6025 -1.40375,-1.1225 -0.4,-0.51875 -0.6,-1.07 -0.6,-1.6525 0,-0.73 0.21125,-1.33875 0.63375,-1.82375 0.42125,-0.485 1.0325,-0.96125 1.8325,-1.43 -1.005,-0.43375 -1.80125,-1.13 -2.38875,-2.08875 -0.5875,-0.96 -0.8825,-2.09 -0.8825,-3.39125 0,-2.09 0.68,-3.705 2.03875,-4.8475 1.3575,-1.14125 3.29875,-1.7125 5.8225,-1.7125 0.53625,0 1.1725,0.05 1.90875,0.14625 0.73625,0.0975 1.2075,0.16875 1.4125,0.21375 l 6.68,0 z" />
    <path
       inkscape:connector-curvature="0"
       id="path320"
       style="fill:#ffffff;fill-opacity:1;fill-rule:nonzero;stroke:none"
       d="m 461.9932,562.69993 c -1.1075,0 -1.975,0.35125 -2.6025,1.05375 -0.6275,0.70124 -0.9875,1.69875 -1.07875,2.98749 l 7.32875,0 c -0.0225,-1.28874 -0.35875,-2.28625 -1.01,-2.98749 -0.65125,-0.7025 -1.53,-1.05375 -2.6375,-1.05375 m 0.73625,16.1325 c -3.08125,0 -5.49125,-0.85 -7.22625,-2.55126 -1.73625,-1.70125 -2.60375,-4.11 -2.60375,-7.2275 0,-3.2075 0.8025,-5.68875 2.40625,-7.44125 1.60375,-1.7525 3.8225,-2.62875 6.65375,-2.62875 2.705,0 4.8125,0.77125 6.31875,2.3125 1.5075,1.54125 2.26125,3.67001 2.26125,6.3875 l 0,2.53501 -12.34875,0 c 0.0575,1.48375 0.4975,2.6425 1.32,3.47624 0.82125,0.8325 1.97375,1.25 3.45875,1.25 1.1525,0 2.24375,-0.12 3.27125,-0.36 1.0275,-0.24 2.10125,-0.62125 3.22,-1.1475 l 0,4.0425 c -0.91375,0.45626 -1.89,0.795 -2.92875,1.01876 -1.03875,0.2225 -2.30625,0.33375 -3.8025,0.33375" />
    <path
       inkscape:connector-curvature="0"
       id="path324"
       style="fill:#ffffff;fill-opacity:1;fill-rule:nonzero;stroke:none"
       d="m 487.97095,578.48968 -9.3325,-23.11875 -0.1375,0 c 0.0925,1.415 0.1375,2.865 0.1375,4.34875 l 0,18.77 -1.67875,0 0,-25.0375 2.70625,0 8.87125,22.02375 0.1025,0 8.87125,-22.02375 2.63625,0 0,25.0375 -1.7625,0 0,-18.975 c 0,-1.32375 0.0675,-2.69375 0.205,-4.11 l -0.1375,0 -9.3675,23.085 -1.11375,0 z" />
    <path
       d="m 509.8572,578.4893 -1.695,0 0,-18.615 1.695,0 0,18.615 z m -1.935,-23.78625 c 0,-1.09625 0.36,-1.645 1.07875,-1.645 0.35375,0 0.63125,0.1425 0.83125,0.42875 0.2,0.285 0.29875,0.69125 0.29875,1.21625 0,0.51375 -0.0987,0.9175 -0.29875,1.215 -0.2,0.29625 -0.4775,0.44625 -0.83125,0.44625 -0.71875,0 -1.07875,-0.55375 -1.07875,-1.66125"
       style="fill:#ffffff;fill-opacity:1;fill-rule:nonzero;stroke:none"
       id="path326"
       inkscape:connector-curvature="0" />
    <path
       inkscape:connector-curvature="0"
       id="path330"
       style="fill:#ffffff;fill-opacity:1;fill-rule:nonzero;stroke:none"
       d="m 530.44158,578.48968 0,-12.07375 c 0,-1.87125 -0.39376,-3.23375 -1.18126,-4.08376 -0.78749,-0.85125 -2.01,-1.27624 -3.665,-1.27624 -2.22624,0 -3.855,0.5625 -4.88999,1.6875 -1.0325,1.12375 -1.54876,2.94749 -1.54876,5.47125 l 0,10.275 -1.69625,0 0,-18.615 1.43876,0 0.325,2.55124 0.1025,0 c 1.20999,-1.93999 3.36249,-2.91124 6.45624,-2.91124 4.225,0 6.3375,2.26625 6.3375,6.79875 l 0,12.17625 -1.67874,0 z" />
    <path
       inkscape:connector-curvature="0"
       id="path334"
       style="fill:#ffffff;fill-opacity:1;fill-rule:nonzero;stroke:none"
       d="m 546.33395,561.05555 c -2.0325,0 -3.56,0.71375 -4.5825,2.14125 -1.02125,1.42625 -1.53125,3.49875 -1.53125,6.21625 0,5.275 2.04875,7.9125 6.1475,7.9125 2.10125,0 3.64125,-0.61125 4.62375,-1.8325 0.9825,-1.22125 1.4725,-3.23625 1.4725,-6.04625 l 0,-0.29 c 0,-2.8775 -0.48125,-4.94625 -1.44625,-6.20875 -0.965,-1.26125 -2.52625,-1.8925 -4.68375,-1.8925 m 0,-1.54125 c 1.3475,0 2.51125,0.24625 3.49375,0.73625 0.9825,0.4925 1.86,1.33 2.63625,2.51875 l 0.1025,0 c -0.0675,-1.44 -0.1025,-2.84875 -0.1025,-4.23125 l 0,-6.69625 1.67875,0 0,26.6475 -1.1125,0 -0.42875,-2.8425 -0.1375,0 c -1.41625,2.12375 -3.4475,3.18625 -6.09625,3.18625 -2.56875,0 -4.5325,-0.8 -5.89125,-2.39875 -1.3575,-1.59875 -2.0375,-3.92625 -2.0375,-6.9875 0,-3.21875 0.67375,-5.67875 2.02,-7.38 1.3475,-1.70125 3.30625,-2.5525 5.875,-2.5525" />
    <path
       inkscape:connector-curvature="0"
       id="path338"
       style="fill:#ffffff;fill-opacity:1;fill-rule:nonzero;stroke:none"
       d="m 477.74632,535.43855 c -25.80875,0 -46.7325,-20.92375 -46.7325,-46.7325 0,-25.80875 20.92375,-46.7325 46.7325,-46.7325 12.01375,0 22.965,4.53625 31.24375,11.98625 -9.15249,-10.165 -22.4125,-16.56 -37.16625,-16.56 -27.615,0 -50.00125,22.3875 -50.00125,50.00125 0,27.61375 22.38625,50.00125 50.00125,50.00125 6.98,0 13.62375,-1.435 19.66125,-4.02 -4.345,1.335 -8.9575,2.05625 -13.73875,2.05625" />
    <path
       inkscape:connector-curvature="0"
       id="path342"
       style="fill:#ffffff;fill-opacity:1;fill-rule:nonzero;stroke:none"
       d="m 504.76845,460.47268 c 15.1225,18.70875 12.21375,46.1375 -6.5,61.25875 -8.95125,7.23624 -19.89875,10.33249 -30.54,9.55625 12.58125,2.87999 26.30875,0.17625 37.12375,-8.56751 18.7125,-15.12125 21.62125,-42.5475 6.49875,-61.26 -7.88625,-9.75875 -19.12125,-15.2075 -30.72,-16.0525 9.18125,2.1 17.7575,7.16875 24.1375,15.065" />
    <path
       inkscape:connector-curvature="0"
       id="path346"
       style="fill:#ffffff;fill-opacity:1;fill-rule:nonzero;stroke:none"
       d="m 472.8427,472.47043 0,4.27125 -19.52125,0 c -2.48875,0 -4.45875,0.5825 -5.855,1.73125 -1.37,1.12875 -2.32125,2.725 -2.82375,4.7475 l -0.55625,2.24 2.30625,0 22.12,0 0,3.925 -22.48,0 -1.80375,0 0,1.80625 0,5.065 0,1.80375 1.80375,0 26.81,0 0,4.2725 -31.79,0 0,-14.99625 c 0,-2.3475 0.295,-4.4925 0.87625,-6.375 0.56125,-1.82375 1.37875,-3.38625 2.42125,-4.63875 1.02125,-1.225 2.2825,-2.18375 3.74375,-2.845 1.47625,-0.66875 3.18625,-1.0075 5.0825,-1.0075 l 19.66625,0" />
    <path
       inkscape:connector-curvature="0"
       id="path350"
       style="fill:#ffffff;fill-opacity:1;fill-rule:nonzero;stroke:none"
       d="m 486.93695,472.47043 c 2.34875,0 4.4925,0.295 6.37375,0.87625 1.82375,0.56375 3.38625,1.37875 4.64,2.42125 1.22625,1.0225 2.1825,2.2825 2.84375,3.745 0.67,1.47375 1.01,3.18375 1.01,5.0825 l 0,17.7375 -4.2725,0 0,-17.59375 c 0,-2.48875 -0.58125,-4.4575 -1.7325,-5.855 -1.1275,-1.3725 -2.725,-2.32125 -4.74625,-2.8225 l -2.24,-0.5575 0,2.3075 0,22.12 -3.925,0 0,-22.48 0,-1.80625 -1.80375,0 -5.06625,0 -1.80375,0 0,1.80625 0,24.88125 -4.27375,0 0,-29.8625 14.99625,0" />
    <path
       inkscape:connector-curvature="0"
       id="path354"
       style="fill:#ffffff;fill-opacity:1;fill-rule:nonzero;stroke:none"
       d="m 501.88632,587.23668 -3.48375,0 0,-6.37375 3.48375,0 0,0.40999 -3.03875,0 0,2.41125 2.86875,0 0,0.41 -2.86875,0 0,2.73251 3.03875,0 0,0.40999 z" />
    <path
       inkscape:connector-curvature="0"
       id="path358"
       style="fill:#ffffff;fill-opacity:1;fill-rule:nonzero;stroke:none"
       d="m 507.2312,587.23668 -0.51,0 -1.88375,-2.9725 -1.9175,2.9725 -0.49375,0 2.14625,-3.32125 -1.95,-3.0525 0.50125,0 1.7225,2.73 1.74875,-2.73 0.475,0 -1.975,3.0425 2.13625,3.33124 z" />
    <path
       inkscape:connector-curvature="0"
       id="path362"
       style="fill:#ffffff;fill-opacity:1;fill-rule:nonzero;stroke:none"
       d="m 508.5782,584.2203 0.87625,0 c 0.7175,0 1.2375,-0.11875 1.55625,-0.35625 0.32,-0.23625 0.48,-0.62 0.48,-1.15375 0,-0.49 -0.15125,-0.85375 -0.45375,-1.09125 -0.3025,-0.23625 -0.77,-0.355 -1.40375,-0.355 l -1.055,0 0,2.95625 z m 3.39125,-1.52625 c 0,0.61625 -0.20875,1.08875 -0.6275,1.4175 -0.41875,0.32875 -1.01125,0.4925 -1.77875,0.4925 l -0.985,0 0,2.6325 -0.44375,0 0,-6.37375 1.56,0 c 1.51625,0 2.275,0.61125 2.275,1.83125" />
    <path
       inkscape:connector-curvature="0"
       id="path366"
       style="fill:#ffffff;fill-opacity:1;fill-rule:nonzero;stroke:none"
       d="m 516.83995,587.23668 -3.48375,0 0,-6.37375 3.48375,0 0,0.40999 -3.03875,0 0,2.41125 2.86875,0 0,0.41 -2.86875,0 0,2.73251 3.03875,0 0,0.40999 z" />
    <path
       inkscape:connector-curvature="0"
       id="path370"
       style="fill:#ffffff;fill-opacity:1;fill-rule:nonzero;stroke:none"
       d="m 521.00382,581.1728 c -0.79999,0 -1.42875,0.25625 -1.8875,0.7675 -0.45875,0.51125 -0.68999,1.21125 -0.68999,2.1 0,0.91125 0.21625,1.6175 0.64999,2.12 0.43376,0.5025 1.0525,0.755 1.85751,0.755 0.53499,0 1.02624,-0.0688 1.47374,-0.20625 l 0,0.3925 c -0.42124,0.14875 -0.9475,0.2225 -1.57874,0.2225 -0.89501,0 -1.59876,-0.28875 -2.11375,-0.8675 -0.51501,-0.5775 -0.7725,-1.38625 -0.7725,-2.42375 0,-0.6475 0.12249,-1.21875 0.36874,-1.71375 0.24501,-0.49375 0.59875,-0.875 1.06001,-1.145 0.45999,-0.2675 0.99624,-0.4025 1.60624,-0.4025 0.62251,0 1.17876,0.11625 1.67,0.34875 l -0.17874,0.40125 c -0.46501,-0.2325 -0.95375,-0.34875 -1.46501,-0.34875" />
    <path
       inkscape:connector-curvature="0"
       id="path374"
       style="fill:#ffffff;fill-opacity:1;fill-rule:nonzero;stroke:none"
       d="m 525.48982,587.23668 -0.44875,0 0,-5.955 -2.07125,0 0,-0.41875 4.59125,0 0,0.41875 -2.07125,0 0,5.955 z" />
    <path
       inkscape:connector-curvature="0"
       id="path378"
       style="fill:#ffffff;fill-opacity:1;fill-rule:nonzero;stroke:none"
       d="m 533.62882,587.23668 -2.37625,-5.885 -0.035,0 c 0.0237,0.36 0.035,0.72875 0.035,1.1075 l 0,4.7775 -0.42625,0 0,-6.37375 0.68876,0 2.25874,5.60749 0.025,0 2.25875,-5.60749 0.67125,0 0,6.37375 -0.44875,0 0,-4.83 c 0,-0.3375 0.0175,-0.68625 0.0525,-1.0475 l -0.035,0 -2.385,5.8775 -0.28375,0 z" />
    <path
       inkscape:connector-curvature="0"
       id="path382"
       style="fill:#ffffff;fill-opacity:1;fill-rule:nonzero;stroke:none"
       d="m 538.67345,584.0408 c 0,0.9125 0.20375,1.61875 0.61125,2.11625 0.40625,0.5 0.99,0.74875 1.7525,0.74875 0.7675,0 1.35375,-0.2475 1.75875,-0.74125 0.405,-0.49375 0.60875,-1.2025 0.60875,-2.12375 0,-0.9175 -0.20375,-1.62125 -0.60875,-2.11125 -0.405,-0.49 -0.98875,-0.735 -1.75,-0.735 -0.75875,0 -1.34375,0.2475 -1.755,0.74125 -0.41125,0.49375 -0.6175,1.195 -0.6175,2.105 m 5.215,0 c 0,1.0125 -0.2525,1.8125 -0.75875,2.40125 -0.50625,0.58875 -1.20375,0.8825 -2.0925,0.8825 -0.88625,0 -1.5825,-0.29375 -2.08875,-0.8825 -0.50625,-0.58875 -0.75875,-1.3925 -0.75875,-2.41 0,-1.01375 0.255,-1.8125 0.76625,-2.395 0.51,-0.58375 1.20625,-0.875 2.09,-0.875 0.88875,0 1.585,0.29375 2.0875,0.88 0.50375,0.585 0.755,1.38375 0.755,2.39875" />
    <path
       inkscape:connector-curvature="0"
       id="path386"
       style="fill:#ffffff;fill-opacity:1;fill-rule:nonzero;stroke:none"
       d="m 545.79807,584.0763 1.21626,0 c 0.53749,0 0.955,-0.12 1.25124,-0.36 0.29625,-0.23875 0.44501,-0.59375 0.44501,-1.06125 0,-0.485 -0.14625,-0.83875 -0.43625,-1.05875 -0.29125,-0.22125 -0.76501,-0.3325 -1.42126,-0.3325 l -1.05499,0 0,2.8125 z m 0,0.38375 0,2.77625 -0.44374,0 0,-6.3725 1.51625,0 c 0.79125,0 1.375,0.14625 1.75249,0.4375 0.37876,0.2925 0.56626,0.7325 0.56626,1.31875 0,0.4275 -0.11126,0.7875 -0.33751,1.08125 -0.22499,0.29375 -0.5675,0.505 -1.02625,0.6325 l 1.73,2.9025 -0.53125,0 -1.64375,-2.77625 -1.5825,0 z" />
    <path
       inkscape:connector-curvature="0"
       id="path390"
       style="fill:#ffffff;fill-opacity:1;fill-rule:nonzero;stroke:none"
       d="m 554.1422,587.23668 -3.48375,0 0,-6.37375 3.48375,0 0,0.40999 -3.03875,0 0,2.41125 2.86875,0 0,0.41 -2.86875,0 0,2.73251 3.03875,0 0,0.40999 z" />
  </g>
</svg>
