<?xml version="1.0" encoding="UTF-8" standalone="no"?>
<!-- Created with Inkscape (http://www.inkscape.org/) -->

<svg
   xmlns:dc="http://purl.org/dc/elements/1.1/"
   xmlns:cc="http://creativecommons.org/ns#"
   xmlns:rdf="http://www.w3.org/1999/02/22-rdf-syntax-ns#"
   xmlns:svg="http://www.w3.org/2000/svg"
   xmlns="http://www.w3.org/2000/svg"
   xmlns:sodipodi="http://sodipodi.sourceforge.net/DTD/sodipodi-0.dtd"
   xmlns:inkscape="http://www.inkscape.org/namespaces/inkscape"
   width="99.211609"
   height="100.0025"
   id="svg6137"
   version="1.1"
   inkscape:version="0.91 r13725"
   sodipodi:docname="logo_edgemind_only_white.svg">
  <defs
     id="defs6139" />
  <sodipodi:namedview
     id="base"
     pagecolor="#ffffff"
     bordercolor="#666666"
     borderopacity="1.0"
     inkscape:pageopacity="0.0"
     inkscape:pageshadow="2"
     inkscape:zoom="2.8"
     inkscape:cx="-76.359014"
     inkscape:cy="3.6115519"
     inkscape:document-units="px"
     inkscape:current-layer="layer1"
     showgrid="false"
     inkscape:window-width="1920"
     inkscape:window-height="1008"
     inkscape:window-x="0"
     inkscape:window-y="0"
     inkscape:window-maximized="1"
     fit-margin-top="0"
     fit-margin-left="0"
     fit-margin-right="0"
     fit-margin-bottom="0" />
  <metadata
     id="metadata6142">
    <rdf:RDF>
      <cc:Work
         rdf:about="">
        <dc:format>image/svg+xml</dc:format>
        <dc:type
           rdf:resource="http://purl.org/dc/dcmitype/StillImage" />
        <dc:title></dc:title>
      </cc:Work>
    </rdf:RDF>
  </metadata>
  <g
     inkscape:label="Calque 1"
     inkscape:groupmode="layer"
     id="layer1"
     transform="translate(-421.82257,-437.3998)">
    <g
       id="g3374"
       style="fill:#ffffff"
       inkscape:export-xdpi="246"
       inkscape:export-ydpi="246">
      <path
         d="m 477.74632,535.43855 c -25.80875,0 -46.7325,-20.92375 -46.7325,-46.7325 0,-25.80875 20.92375,-46.7325 46.7325,-46.7325 12.01375,0 22.965,4.53625 31.24375,11.98625 -9.15249,-10.165 -22.4125,-16.56 -37.16625,-16.56 -27.615,0 -50.00125,22.3875 -50.00125,50.00125 0,27.61375 22.38625,50.00125 50.00125,50.00125 6.98,0 13.62375,-1.435 19.66125,-4.02 -4.345,1.335 -8.9575,2.05625 -13.73875,2.05625"
         style="fill:#ffffff;fill-opacity:1;fill-rule:nonzero;stroke:none"
         id="path338"
         inkscape:connector-curvature="0" />
      <path
         d="m 504.76845,460.47268 c 15.1225,18.70875 12.21375,46.1375 -6.5,61.25875 -8.95125,7.23624 -19.89875,10.33249 -30.54,9.55625 12.58125,2.87999 26.30875,0.17625 37.12375,-8.56751 18.7125,-15.12125 21.62125,-42.5475 6.49875,-61.26 -7.88625,-9.75875 -19.12125,-15.2075 -30.72,-16.0525 9.18125,2.1 17.7575,7.16875 24.1375,15.065"
         style="fill:#ffffff;fill-opacity:1;fill-rule:nonzero;stroke:none"
         id="path342"
         inkscape:connector-curvature="0" />
      <path
         d="m 472.8427,472.47043 0,4.27125 -19.52125,0 c -2.48875,0 -4.45875,0.5825 -5.855,1.73125 -1.37,1.12875 -2.32125,2.725 -2.82375,4.7475 l -0.55625,2.24 2.30625,0 22.12,0 0,3.925 -22.48,0 -1.80375,0 0,1.80625 0,5.065 0,1.80375 1.80375,0 26.81,0 0,4.2725 -31.79,0 0,-14.99625 c 0,-2.3475 0.295,-4.4925 0.87625,-6.375 0.56125,-1.82375 1.37875,-3.38625 2.42125,-4.63875 1.02125,-1.225 2.2825,-2.18375 3.74375,-2.845 1.47625,-0.66875 3.18625,-1.0075 5.0825,-1.0075 l 19.66625,0"
         style="fill:#ffffff;fill-opacity:1;fill-rule:nonzero;stroke:none"
         id="path346"
         inkscape:connector-curvature="0" />
      <path
         d="m 486.93695,472.47043 c 2.34875,0 4.4925,0.295 6.37375,0.87625 1.82375,0.56375 3.38625,1.37875 4.64,2.42125 1.22625,1.0225 2.1825,2.2825 2.84375,3.745 0.67,1.47375 1.01,3.18375 1.01,5.0825 l 0,17.7375 -4.2725,0 0,-17.59375 c 0,-2.48875 -0.58125,-4.4575 -1.7325,-5.855 -1.1275,-1.3725 -2.725,-2.32125 -4.74625,-2.8225 l -2.24,-0.5575 0,2.3075 0,22.12 -3.925,0 0,-22.48 0,-1.80625 -1.80375,0 -5.06625,0 -1.80375,0 0,1.80625 0,24.88125 -4.27375,0 0,-29.8625 14.99625,0"
         style="fill:#ffffff;fill-opacity:1;fill-rule:nonzero;stroke:none"
         id="path350"
         inkscape:connector-curvature="0" />
    </g>
  </g>
</svg>
