<?xml version="1.0" encoding="UTF-8" standalone="no"?>
<!-- Created with Inkscape (http://www.inkscape.org/) -->

<svg
   xmlns:dc="http://purl.org/dc/elements/1.1/"
   xmlns:cc="http://creativecommons.org/ns#"
   xmlns:rdf="http://www.w3.org/1999/02/22-rdf-syntax-ns#"
   xmlns:svg="http://www.w3.org/2000/svg"
   xmlns="http://www.w3.org/2000/svg"
   xmlns:sodipodi="http://sodipodi.sourceforge.net/DTD/sodipodi-0.dtd"
   xmlns:inkscape="http://www.inkscape.org/namespaces/inkscape"
   width="600"
   height="543.76959"
   id="svg6137"
   version="1.1"
   inkscape:version="0.92.3 (2405546, 2018-03-11)"
   sodipodi:docname="logo_edgemind_original_600px.svg"
   inkscape:export-filename="/home/roland/Work/EdgeMind/Visual_identity/logos/logo_edgemind_original.png"
   inkscape:export-xdpi="200"
   inkscape:export-ydpi="200">
  <defs
     id="defs6139" />
  <sodipodi:namedview
     id="base"
     pagecolor="#ffffff"
     bordercolor="#666666"
     borderopacity="1.0"
     inkscape:pageopacity="0.0"
     inkscape:pageshadow="2"
     inkscape:zoom="0.35"
     inkscape:cx="-488.00017"
     inkscape:cy="54.962356"
     inkscape:document-units="px"
     inkscape:current-layer="layer1"
     showgrid="false"
     inkscape:window-width="1920"
     inkscape:window-height="1024"
     inkscape:window-x="0"
     inkscape:window-y="0"
     inkscape:window-maximized="1"
     fit-margin-top="0"
     fit-margin-left="0"
     fit-margin-right="0"
     fit-margin-bottom="0" />
  <metadata
     id="metadata6142">
    <rdf:RDF>
      <cc:Work
         rdf:about="">
        <dc:format>image/svg+xml</dc:format>
        <dc:type
           rdf:resource="http://purl.org/dc/dcmitype/StillImage" />
        <dc:title></dc:title>
      </cc:Work>
    </rdf:RDF>
  </metadata>
  <g
     inkscape:label="Calque 1"
     inkscape:groupmode="layer"
     id="layer1"
     transform="translate(-388.71445,-43.554949)">
    <g
       transform="matrix(4.5336876,0,0,-4.5336876,-75.194225,3165.2328)"
       id="g6080">
      <path
         d="m 113.8608,575.6797 h -11.536 v 20.03 h 11.536 v -3.48 h -7.289 v -4.398 h 6.782 v -3.48 h -6.782 v -5.165 h 7.289 z"
         style="fill:#244371;fill-opacity:1;fill-rule:nonzero;stroke:none"
         id="path308"
         inkscape:connector-curvature="0" />
      <path
         d="m 125.1221,578.7349 c 1.069,0 1.852,0.31 2.35,0.931 0.498,0.621 0.77,1.676 0.815,3.165 v 0.452 c 0,1.644 -0.253,2.823 -0.76,3.535 -0.508,0.713 -1.331,1.069 -2.473,1.069 -0.932,0 -1.656,-0.396 -2.172,-1.185 -0.516,-0.791 -0.774,-1.939 -0.774,-3.446 0,-1.507 0.26,-2.638 0.781,-3.391 0.521,-0.754 1.265,-1.13 2.233,-1.13 m -1.466,-3.33 c -1.799,0 -3.213,0.7 -4.24,2.097 -1.028,1.398 -1.542,3.334 -1.542,5.809 0,2.512 0.523,4.469 1.569,5.87 1.046,1.403 2.487,2.104 4.323,2.104 1.927,0 3.398,-0.75 4.412,-2.247 h 0.136 c -0.21,1.141 -0.315,2.16 -0.315,3.055 v 4.905 h 4.192 v -21.318 h -3.205 l -0.808,1.986 h -0.179 c -0.949,-1.507 -2.398,-2.261 -4.343,-2.261"
         style="fill:#244371;fill-opacity:1;fill-rule:nonzero;stroke:none"
         id="path312"
         inkscape:connector-curvature="0" />
      <path
         d="m 140.6855,585.9819 c 0,-0.831 0.189,-1.489 0.568,-1.973 0.379,-0.484 0.957,-0.726 1.734,-0.726 0.785,0 1.36,0.242 1.726,0.726 0.365,0.484 0.548,1.142 0.548,1.973 0,1.845 -0.758,2.768 -2.274,2.768 -1.535,0 -2.302,-0.923 -2.302,-2.768 m -1.521,-12.467 c 0,-0.576 0.276,-1.028 0.829,-1.357 0.553,-0.328 1.327,-0.492 2.322,-0.492 1.498,0 2.672,0.205 3.521,0.616 0.85,0.41 1.275,0.973 1.275,1.685 0,0.576 -0.252,0.973 -0.754,1.192 -0.503,0.219 -1.279,0.328 -2.329,0.328 h -2.165 c -0.767,0 -1.409,-0.18 -1.925,-0.54 -0.516,-0.361 -0.774,-0.838 -0.774,-1.432 m 11.824,17.482 v -2.124 l -2.398,-0.617 c 0.438,-0.685 0.658,-1.452 0.658,-2.301 0,-1.644 -0.574,-2.926 -1.72,-3.844 -1.146,-0.917 -2.738,-1.376 -4.775,-1.376 l -0.753,0.041 -0.617,0.068 c -0.428,-0.328 -0.643,-0.694 -0.643,-1.095 0,-0.603 0.767,-0.905 2.302,-0.905 h 2.602 c 1.681,0 2.962,-0.361 3.843,-1.082 0.882,-0.722 1.323,-1.781 1.323,-3.178 0,-1.79 -0.747,-3.179 -2.241,-4.165 -1.493,-0.987 -3.637,-1.48 -6.432,-1.48 -2.137,0 -3.77,0.372 -4.898,1.117 -1.128,0.744 -1.692,1.787 -1.692,3.13 0,0.923 0.288,1.694 0.863,2.316 0.576,0.621 1.421,1.063 2.535,1.328 -0.429,0.183 -0.804,0.482 -1.123,0.898 -0.32,0.415 -0.48,0.856 -0.48,1.322 0,0.584 0.169,1.071 0.507,1.459 0.337,0.388 0.826,0.769 1.466,1.144 -0.804,0.347 -1.441,0.904 -1.911,1.671 -0.47,0.768 -0.706,1.672 -0.706,2.713 0,1.672 0.544,2.964 1.631,3.878 1.086,0.913 2.639,1.37 4.658,1.37 0.429,0 0.938,-0.04 1.527,-0.117 0.589,-0.078 0.966,-0.135 1.13,-0.171 z"
         style="fill:#244371;fill-opacity:1;fill-rule:nonzero;stroke:none"
         id="path316"
         inkscape:connector-curvature="0" />
      <path
         d="m 160.9478,588.3115 c -0.886,0 -1.58,-0.281 -2.082,-0.843 -0.502,-0.561 -0.79,-1.359 -0.863,-2.39 h 5.863 c -0.018,1.031 -0.287,1.829 -0.808,2.39 -0.521,0.562 -1.224,0.843 -2.11,0.843 m 0.589,-12.906 c -2.465,0 -4.393,0.68 -5.781,2.041 -1.389,1.361 -2.083,3.288 -2.083,5.782 0,2.566 0.642,4.551 1.925,5.953 1.283,1.402 3.058,2.103 5.323,2.103 2.164,0 3.85,-0.617 5.055,-1.85 1.206,-1.233 1.809,-2.936 1.809,-5.11 v -2.028 h -9.879 c 0.046,-1.187 0.398,-2.114 1.056,-2.781 0.657,-0.666 1.579,-1 2.767,-1 0.922,0 1.795,0.096 2.617,0.288 0.822,0.192 1.681,0.497 2.576,0.918 v -3.234 c -0.731,-0.365 -1.512,-0.636 -2.343,-0.815 -0.831,-0.178 -1.845,-0.267 -3.042,-0.267"
         style="fill:#244371;fill-opacity:1;fill-rule:nonzero;stroke:none"
         id="path320"
         inkscape:connector-curvature="0" />
      <path
         d="m 181.73,575.6797 -7.466,18.495 h -0.11 c 0.074,-1.132 0.11,-2.292 0.11,-3.479 v -15.016 h -1.343 v 20.03 h 2.165 l 7.097,-17.619 h 0.082 l 7.097,17.619 h 2.109 v -20.03 h -1.41 v 15.18 c 0,1.059 0.054,2.155 0.164,3.288 h -0.11 l -7.494,-18.468 z"
         style="fill:#f46e27;fill-opacity:1;fill-rule:nonzero;stroke:none"
         id="path324"
         inkscape:connector-curvature="0" />
      <path
         inkscape:connector-curvature="0"
         id="path326"
         style="fill:#f46e27;fill-opacity:1;fill-rule:nonzero;stroke:none"
         d="m 199.239,575.68 h -1.356 v 14.892 h 1.356 z m -1.548,19.029 c 0,0.877 0.288,1.316 0.863,1.316 0.283,0 0.505,-0.114 0.665,-0.343 0.16,-0.228 0.239,-0.553 0.239,-0.973 0,-0.411 -0.079,-0.734 -0.239,-0.972 -0.16,-0.237 -0.382,-0.357 -0.665,-0.357 -0.575,0 -0.863,0.443 -0.863,1.329" />
      <path
         d="m 215.7065,575.6797 v 9.659 c 0,1.497 -0.315,2.587 -0.945,3.267 -0.63,0.681 -1.608,1.021 -2.932,1.021 -1.781,0 -3.084,-0.45 -3.912,-1.35 -0.826,-0.899 -1.239,-2.358 -1.239,-4.377 v -8.22 h -1.357 v 14.892 h 1.151 l 0.26,-2.041 h 0.082 c 0.968,1.552 2.69,2.329 5.165,2.329 3.38,0 5.07,-1.813 5.07,-5.439 v -9.741 z"
         style="fill:#f46e27;fill-opacity:1;fill-rule:nonzero;stroke:none"
         id="path330"
         inkscape:connector-curvature="0" />
      <path
         d="m 228.4204,589.627 c -1.626,0 -2.848,-0.571 -3.666,-1.713 -0.817,-1.141 -1.225,-2.799 -1.225,-4.973 0,-4.22 1.639,-6.33 4.918,-6.33 1.681,0 2.913,0.489 3.699,1.466 0.786,0.977 1.178,2.589 1.178,4.837 v 0.232 c 0,2.302 -0.385,3.957 -1.157,4.967 -0.772,1.009 -2.021,1.514 -3.747,1.514 m 0,1.233 c 1.078,0 2.009,-0.197 2.795,-0.589 0.786,-0.394 1.488,-1.064 2.109,-2.015 h 0.082 c -0.054,1.152 -0.082,2.279 -0.082,3.385 v 5.357 h 1.343 V 575.68 h -0.89 l -0.343,2.274 h -0.11 c -1.133,-1.699 -2.758,-2.549 -4.877,-2.549 -2.055,0 -3.626,0.64 -4.713,1.919 -1.086,1.279 -1.63,3.141 -1.63,5.59 0,2.575 0.539,4.543 1.616,5.904 1.078,1.361 2.645,2.042 4.7,2.042"
         style="fill:#f46e27;fill-opacity:1;fill-rule:nonzero;stroke:none"
         id="path334"
         inkscape:connector-curvature="0" />
      <path
         d="m 173.5503,610.1206 c -20.647,0 -37.386,16.739 -37.386,37.386 0,20.647 16.739,37.386 37.386,37.386 9.611,0 18.372,-3.629 24.995,-9.589 -7.322,8.132 -17.93,13.248 -29.733,13.248 -22.092,0 -40.001,-17.91 -40.001,-40.001 0,-22.091 17.909,-40.001 40.001,-40.001 5.584,0 10.899,1.148 15.729,3.216 -3.476,-1.068 -7.166,-1.645 -10.991,-1.645"
         style="fill:#f46e27;fill-opacity:1;fill-rule:nonzero;stroke:none"
         id="path338"
         inkscape:connector-curvature="0" />
      <path
         d="m 195.168,670.0933 c 12.098,-14.967 9.771,-36.91 -5.2,-49.007 -7.161,-5.789 -15.919,-8.266 -24.432,-7.645 10.065,-2.304 21.047,-0.141 29.699,6.854 14.97,12.097 17.297,34.038 5.199,49.008 -6.309,7.807 -15.297,12.166 -24.576,12.842 7.345,-1.68 14.206,-5.735 19.31,-12.052"
         style="fill:#244371;fill-opacity:1;fill-rule:nonzero;stroke:none"
         id="path342"
         inkscape:connector-curvature="0" />
      <path
         d="m 169.6274,660.4951 v -3.417 h -15.617 c -1.991,0 -3.567,-0.466 -4.684,-1.385 -1.096,-0.903 -1.857,-2.18 -2.259,-3.798 l -0.445,-1.792 h 1.845 17.696 v -3.14 h -17.984 -1.443 v -1.445 -4.052 -1.443 h 1.443 21.448 v -3.418 h -25.432 v 11.997 c 0,1.878 0.236,3.594 0.701,5.1 0.449,1.459 1.103,2.709 1.937,3.711 0.817,0.98 1.826,1.747 2.995,2.276 1.181,0.535 2.549,0.806 4.066,0.806 h 15.733"
         style="fill:#244371;fill-opacity:1;fill-rule:nonzero;stroke:none"
         id="path346"
         inkscape:connector-curvature="0" />
      <path
         d="m 180.9028,660.4951 c 1.879,0 3.594,-0.236 5.099,-0.701 1.459,-0.451 2.709,-1.103 3.712,-1.937 0.981,-0.818 1.746,-1.826 2.275,-2.996 0.536,-1.179 0.808,-2.547 0.808,-4.066 v -14.19 h -3.418 v 14.075 c 0,1.991 -0.465,3.566 -1.386,4.684 -0.902,1.098 -2.18,1.857 -3.797,2.258 l -1.792,0.446 v -1.846 -17.696 h -3.14 v 17.984 1.445 h -1.443 -4.053 -1.443 v -1.445 -19.905 h -3.419 v 23.89 h 11.997"
         style="fill:#f46e27;fill-opacity:1;fill-rule:nonzero;stroke:none"
         id="path350"
         inkscape:connector-curvature="0" />
      <path
         d="m 192.8623,568.6821 h -2.787 v 5.099 h 2.787 v -0.328 h -2.431 v -1.929 h 2.295 v -0.328 h -2.295 v -2.186 h 2.431 z"
         style="fill:#161616;fill-opacity:1;fill-rule:nonzero;stroke:none"
         id="path354"
         inkscape:connector-curvature="0" />
      <path
         d="m 197.1382,568.6821 h -0.408 l -1.507,2.378 -1.534,-2.378 h -0.395 l 1.717,2.657 -1.56,2.442 h 0.401 l 1.378,-2.184 1.399,2.184 h 0.38 l -1.58,-2.434 z"
         style="fill:#161616;fill-opacity:1;fill-rule:nonzero;stroke:none"
         id="path358"
         inkscape:connector-curvature="0" />
      <path
         d="m 198.2158,571.0952 h 0.701 c 0.574,0 0.99,0.095 1.245,0.285 0.256,0.189 0.384,0.496 0.384,0.923 0,0.392 -0.121,0.683 -0.363,0.873 -0.242,0.189 -0.616,0.284 -1.123,0.284 h -0.844 z m 2.713,1.221 c 0,-0.493 -0.167,-0.871 -0.502,-1.134 -0.335,-0.263 -0.809,-0.394 -1.423,-0.394 h -0.788 v -2.106 h -0.355 v 5.099 h 1.248 c 1.213,0 1.82,-0.489 1.82,-1.465"
         style="fill:#161616;fill-opacity:1;fill-rule:nonzero;stroke:none"
         id="path362"
         inkscape:connector-curvature="0" />
      <path
         d="m 204.8252,568.6821 h -2.787 v 5.099 h 2.787 v -0.328 h -2.431 v -1.929 h 2.295 v -0.328 h -2.295 v -2.186 h 2.431 z"
         style="fill:#161616;fill-opacity:1;fill-rule:nonzero;stroke:none"
         id="path366"
         inkscape:connector-curvature="0" />
      <path
         d="m 208.1563,573.5332 c -0.64,0 -1.143,-0.205 -1.51,-0.614 -0.367,-0.409 -0.552,-0.969 -0.552,-1.68 0,-0.729 0.173,-1.294 0.52,-1.696 0.347,-0.402 0.842,-0.604 1.486,-0.604 0.428,0 0.821,0.055 1.179,0.165 v -0.314 c -0.337,-0.119 -0.758,-0.178 -1.263,-0.178 -0.716,0 -1.279,0.231 -1.691,0.694 -0.412,0.462 -0.618,1.109 -0.618,1.939 0,0.518 0.098,0.975 0.295,1.371 0.196,0.395 0.479,0.7 0.848,0.916 0.368,0.214 0.797,0.322 1.285,0.322 0.498,0 0.943,-0.093 1.336,-0.279 l -0.143,-0.321 c -0.372,0.186 -0.763,0.279 -1.172,0.279"
         style="fill:#161616;fill-opacity:1;fill-rule:nonzero;stroke:none"
         id="path370"
         inkscape:connector-curvature="0" />
      <path
         d="m 211.7451,568.6821 h -0.359 v 4.764 h -1.657 v 0.335 h 3.673 v -0.335 h -1.657 z"
         style="fill:#161616;fill-opacity:1;fill-rule:nonzero;stroke:none"
         id="path374"
         inkscape:connector-curvature="0" />
      <path
         d="m 218.2563,568.6821 -1.901,4.708 h -0.028 c 0.019,-0.288 0.028,-0.583 0.028,-0.886 v -3.822 h -0.341 v 5.099 h 0.551 l 1.807,-4.486 h 0.02 l 1.807,4.486 h 0.537 v -5.099 h -0.359 v 3.864 c 0,0.27 0.014,0.549 0.042,0.838 h -0.028 l -1.908,-4.702 z"
         style="fill:#161616;fill-opacity:1;fill-rule:nonzero;stroke:none"
         id="path378"
         inkscape:connector-curvature="0" />
      <path
         d="m 222.292,571.2388 c 0,-0.73 0.163,-1.295 0.489,-1.693 0.325,-0.4 0.792,-0.599 1.402,-0.599 0.614,0 1.083,0.198 1.407,0.593 0.324,0.395 0.487,0.962 0.487,1.699 0,0.734 -0.163,1.297 -0.487,1.689 -0.324,0.392 -0.791,0.588 -1.4,0.588 -0.607,0 -1.075,-0.198 -1.404,-0.593 -0.329,-0.395 -0.494,-0.956 -0.494,-1.684 m 4.172,0 c 0,-0.81 -0.202,-1.45 -0.607,-1.921 -0.405,-0.471 -0.963,-0.706 -1.674,-0.706 -0.709,0 -1.266,0.235 -1.671,0.706 -0.405,0.471 -0.607,1.114 -0.607,1.928 0,0.811 0.204,1.45 0.613,1.916 0.408,0.467 0.965,0.7 1.672,0.7 0.711,0 1.268,-0.235 1.67,-0.704 0.403,-0.468 0.604,-1.107 0.604,-1.919"
         style="fill:#161616;fill-opacity:1;fill-rule:nonzero;stroke:none"
         id="path382"
         inkscape:connector-curvature="0" />
      <path
         d="m 227.9917,571.2104 h 0.973 c 0.43,0 0.764,0.096 1.001,0.288 0.237,0.191 0.356,0.475 0.356,0.849 0,0.388 -0.117,0.671 -0.349,0.847 -0.233,0.177 -0.612,0.266 -1.137,0.266 h -0.844 z m 0,-0.307 v -2.221 h -0.355 v 5.098 h 1.213 c 0.633,0 1.1,-0.117 1.402,-0.35 0.303,-0.234 0.453,-0.586 0.453,-1.055 0,-0.342 -0.089,-0.63 -0.27,-0.865 -0.18,-0.235 -0.454,-0.404 -0.821,-0.506 l 1.384,-2.322 h -0.425 l -1.315,2.221 z"
         style="fill:#161616;fill-opacity:1;fill-rule:nonzero;stroke:none"
         id="path386"
         inkscape:connector-curvature="0" />
      <path
         d="m 234.667,568.6821 h -2.787 v 5.099 h 2.787 v -0.328 h -2.431 v -1.929 h 2.295 v -0.328 h -2.295 v -2.186 h 2.431 z"
         style="fill:#161616;fill-opacity:1;fill-rule:nonzero;stroke:none"
         id="path390"
         inkscape:connector-curvature="0" />
    </g>
  </g>
</svg>
