<?xml version="1.0" encoding="UTF-8" standalone="no"?>
<!-- Created with Inkscape (http://www.inkscape.org/) -->

<svg
   width="99.211609"
   height="100.0025"
   id="svg6137"
   version="1.1"
   inkscape:version="1.4.3 (fcd0343856, 2026-01-01)"
   sodipodi:docname="logo_edgemind_only.svg"
   inkscape:export-filename="/home/roland/Work/EdgeMind/Visual_identity/logos/logo_edgemind_original.png"
   inkscape:export-xdpi="200"
   inkscape:export-ydpi="200"
   xmlns:inkscape="http://www.inkscape.org/namespaces/inkscape"
   xmlns:sodipodi="http://sodipodi.sourceforge.net/DTD/sodipodi-0.dtd"
   xmlns="http://www.w3.org/2000/svg"
   xmlns:svg="http://www.w3.org/2000/svg"
   xmlns:rdf="http://www.w3.org/1999/02/22-rdf-syntax-ns#"
   xmlns:cc="http://creativecommons.org/ns#"
   xmlns:dc="http://purl.org/dc/elements/1.1/">
  <defs
     id="defs6139" />
  <sodipodi:namedview
     id="base"
     pagecolor="#ffffff"
     bordercolor="#666666"
     borderopacity="1.0"
     inkscape:pageopacity="0.0"
     inkscape:pageshadow="2"
     inkscape:zoom="0.35"
     inkscape:cx="-48.571429"
     inkscape:cy="54.285714"
     inkscape:document-units="px"
     inkscape:current-layer="layer1"
     showgrid="false"
     inkscape:window-width="1920"
     inkscape:window-height="1046"
     inkscape:window-x="1920"
     inkscape:window-y="0"
     inkscape:window-maximized="1"
     fit-margin-top="0"
     fit-margin-left="0"
     fit-margin-right="0"
     fit-margin-bottom="0"
     inkscape:showpageshadow="2"
     inkscape:pagecheckerboard="0"
     inkscape:deskcolor="#d1d1d1" />
  <metadata
     id="metadata6142">
    <rdf:RDF>
      <cc:Work
         rdf:about="">
        <dc:format>image/svg+xml</dc:format>
        <dc:type
           rdf:resource="http://purl.org/dc/dcmitype/StillImage" />
      </cc:Work>
    </rdf:RDF>
  </metadata>
  <g
     inkscape:label="Calque 1"
     inkscape:groupmode="layer"
     id="layer1"
     transform="translate(-421.82257,-437.3998)">
    <path
       d="m 477.74632,535.43855 c -25.80875,0 -46.7325,-20.92375 -46.7325,-46.7325 0,-25.80875 20.92375,-46.7325 46.7325,-46.7325 12.01375,0 22.965,4.53625 31.24375,11.98625 -9.15249,-10.165 -22.4125,-16.56 -37.16625,-16.56 -27.615,0 -50.00125,22.3875 -50.00125,50.00125 0,27.61375 22.38625,50.00125 50.00125,50.00125 6.98,0 13.62375,-1.435 19.66125,-4.02 -4.345,1.335 -8.9575,2.05625 -13.73875,2.05625"
       style="fill:#f46e27;fill-opacity:1;fill-rule:nonzero;stroke:none;stroke-width:1.25"
       id="path338"
       inkscape:connector-curvature="0" />
    <path
       d="m 504.76845,460.47268 c 15.1225,18.70875 12.21375,46.1375 -6.5,61.25875 -8.95125,7.23624 -19.89875,10.33249 -30.54,9.55625 12.58125,2.87999 26.30875,0.17625 37.12375,-8.56751 18.7125,-15.12125 21.62125,-42.5475 6.49875,-61.26 -7.88625,-9.75875 -19.12125,-15.2075 -30.72,-16.0525 9.18125,2.1 17.7575,7.16875 24.1375,15.065"
       style="fill:#244371;fill-opacity:1;fill-rule:nonzero;stroke:none;stroke-width:1.25"
       id="path342"
       inkscape:connector-curvature="0" />
    <path
       d="m 472.8427,472.47043 v 4.27125 h -19.52125 c -2.48875,0 -4.45875,0.5825 -5.855,1.73125 -1.37,1.12875 -2.32125,2.725 -2.82375,4.7475 l -0.55625,2.24 h 2.30625 22.12 v 3.925 h -22.48 -1.80375 v 1.80625 5.065 1.80375 h 1.80375 26.81 v 4.2725 h -31.79 v -14.99625 c 0,-2.3475 0.295,-4.4925 0.87625,-6.375 0.56125,-1.82375 1.37875,-3.38625 2.42125,-4.63875 1.02125,-1.225 2.2825,-2.18375 3.74375,-2.845 1.47625,-0.66875 3.18625,-1.0075 5.0825,-1.0075 h 19.66625"
       style="fill:#244371;fill-opacity:1;fill-rule:nonzero;stroke:none;stroke-width:1.25"
       id="path346"
       inkscape:connector-curvature="0" />
    <path
       d="m 486.93695,472.47043 c 2.34875,0 4.4925,0.295 6.37375,0.87625 1.82375,0.56375 3.38625,1.37875 4.64,2.42125 1.22625,1.0225 2.1825,2.2825 2.84375,3.745 0.67,1.47375 1.01,3.18375 1.01,5.0825 v 17.7375 h -4.2725 v -17.59375 c 0,-2.48875 -0.58125,-4.4575 -1.7325,-5.855 -1.1275,-1.3725 -2.725,-2.32125 -4.74625,-2.8225 l -2.24,-0.5575 v 2.3075 22.12 h -3.925 v -22.48 -1.80625 h -1.80375 -5.06625 -1.80375 v 1.80625 24.88125 h -4.27375 v -29.8625 h 14.99625"
       style="fill:#f46e27;fill-opacity:1;fill-rule:nonzero;stroke:none;stroke-width:1.25"
       id="path350"
       inkscape:connector-curvature="0" />
  </g>
</svg>
